<?xml version="1.0" encoding="UTF-8" standalone="no"?>
<!-- Created with Inkscape (http://www.inkscape.org/) -->

<svg
   width="210mm"
   height="297mm"
   viewBox="0 0 210 297"
   version="1.1"
   id="svg1"
   xml:space="preserve"
   inkscape:version="1.4.3 (0d15f75042, 2025-12-25)"
   sodipodi:docname="drawing-1.svg"
   xmlns:inkscape="http://www.inkscape.org/namespaces/inkscape"
   xmlns:sodipodi="http://sodipodi.sourceforge.net/DTD/sodipodi-0.dtd"
   xmlns="http://www.w3.org/2000/svg"
   xmlns:svg="http://www.w3.org/2000/svg"><sodipodi:namedview
     id="namedview1"
     pagecolor="#24006f"
     bordercolor="#000000"
     borderopacity="0.25"
     inkscape:showpageshadow="2"
     inkscape:pageopacity="0.0"
     inkscape:pagecheckerboard="0"
     inkscape:deskcolor="#d1d1d1"
     inkscape:document-units="mm"
     showguides="false"
     inkscape:zoom="9.8273809"
     inkscape:cx="281.7129"
     inkscape:cy="539.106"
     inkscape:window-width="2560"
     inkscape:window-height="995"
     inkscape:window-x="0"
     inkscape:window-y="0"
     inkscape:window-maximized="1"
     inkscape:current-layer="layer1" /><defs
     id="defs1" /><g
     inkscape:label="Layer 1"
     inkscape:groupmode="layer"
     id="layer1"><path
       id="path333-0-9-2"
       style="display:inline;fill:#ffffff;stroke-width:0.83331"
       inkscape:label="14 branco"
       d="M 0,0 V 0.99993896 H 0.99993896 V 0 Z m 171.56627,14.673523 c -8.57038,-0.47643 -26.14998,7.463859 -38.9816,18.13171 -2.19809,1.827406 -4.3441,3.605172 -4.76922,3.950663 -0.71745,0.583049 -0.94952,0.591534 -3.22926,0.115238 -7.37063,-1.53986 -18.9922,-1.653314 -26.430424,-0.258382 -29.428337,5.518878 -52.122317,26.996966 -60.036129,56.819788 -1.752318,6.60354 -2.310115,11.24685 -2.303735,19.18126 0.0092,11.67877 1.988623,20.94144 6.79235,31.7841 0.757897,1.71068 1.275432,3.21327 1.149801,3.33882 -0.125631,0.1255 -1.417725,0.71947 -2.87166,1.31981 -4.931847,2.03637 -9.139497,6.22284 -10.539408,10.48722 -1.086179,3.30869 -0.509916,3.78841 -1.404566,4.61884 -3.128753,2.90408 -4.087475,4.04859 -5.074625,6.05699 -1.106008,2.25023 -1.133484,2.42115 -1.124996,6.98821 l 0.0093,4.68188 c -1.454542,0.31425 -2.808749,0.89858 -4.076237,1.67535 -2.495504,1.5844 -3.401463,3.64083 -4.5837,10.40195 -0.548819,3.13866 -2.035761,11.65474 -3.303674,18.92443 -1.2679263,7.26967 -2.9553061,16.94483 -3.7501589,21.50049 -0.7948396,4.55567 -1.7594808,10.10736 -2.1435384,12.33672 -0.7718096,4.48016 -0.6775355,5.73753 0.607198,8.10648 1.6917295,3.11942 5.0561993,4.48001 9.1627483,3.70468 1.33682,-0.2524 2.528485,-0.39966 2.648417,-0.32711 0.119997,0.0726 0.32233,0.78298 0.449585,1.57872 0.824498,5.15616 5.418797,8.92062 12.464356,10.21333 2.715521,0.49826 10.088285,0.0739 15.59388,-0.89762 8.259866,-1.45767 22.163229,-4.98642 35.52548,-9.01599 3.157874,-0.9523 5.806806,-1.73116 5.886979,-1.73116 0.08017,0 0.450807,0.6737 0.823206,1.49758 2.327533,5.14954 8.740196,7.05287 17.604091,5.22449 5.29882,-1.09299 6.58548,-2.13992 8.56279,-2.13992 11.17992,-2.2583 22.47751,-3.70852 33.66978,-5.50199 0.96627,-0.17834 1.14081,-0.0775 1.54151,0.88987 0.60337,1.45663 2.50579,3.07866 4.14445,3.53363 1.08816,0.30213 2.4229,0.17094 7.30911,-0.71572 3.28812,-0.59668 6.38458,-1.29424 6.88072,-1.55081 2.02983,-1.04968 3.65853,-3.27203 4.15737,-5.67303 0.2463,-1.18536 0.43583,-1.3472 2.41535,-2.06396 5.42086,-1.96284 8.75985,-5.2155 10.76059,-10.48102 0.73327,-1.9298 3.11609,-14.42678 3.11609,-16.34267 0,-1.10286 0.0621,-1.14508 2.35282,-1.72341 11.2872,-2.84963 16.60528,-14.18597 16.44419,-17.37618 0.149,-2.34107 0.14523,-3.1782 -1.11592,-4.96871 l 0.83095,-2.05827 c 1.29259,-3.20014 3.4522,-15.58708 3.25717,-18.68258 -0.29442,-4.67313 -3.20136,-8.64852 -7.59902,-10.39058 -6.3362,-1.77765 -13.33313,-0.48274 -19.57297,1.3131 -0.42244,0.1621 -0.71529,-0.15119 -1.14359,-1.22163 -0.7111,-1.77721 -2.50081,-3.39382 -4.3801,-3.95687 -2.73047,-0.81807 -5.44014,0.80897 -10.69185,0.20988 2.24553,-0.57449 12.67316,-13.97032 17.56068,-28.82305 3.03675,-9.22836 4.28412,-17.91765 3.95325,-27.5301 -0.46866,-13.615543 -3.74458,-24.668988 -11.19932,-37.792527 l -0.82579,-1.455208 1.32137,-5.594491 c 3.99857,-16.928665 4.75001,-29.278367 2.48409,-40.841951 -0.96101,-4.904271 -2.34873,-7.215085 -5.24568,-8.734351 -0.81649,-0.428201 -1.85764,-0.668328 -3.08198,-0.736389 z m -145.070218,94.692317 -2.608018,1.29769 2.584247,1.41542 c 0.625756,0.77869 1.230134,2.43639 1.34307,2.42638 0.112924,-0.0105 0.721522,-1.69068 1.352373,-2.47806 l 2.70829,-1.39388 -2.532074,-1.17754 c -0.872514,-1.13888 -1.139007,-1.83912 -1.510998,-3.4474 0,0 -0.675121,2.33611 -1.33689,3.35739 z m 1.026816,24.2844 c -0.27454,7e-5 -0.580371,0.38814 -1.051099,1.18597 -0.426948,0.72361 -1.258922,1.46825 -1.973523,1.76682 -0.679427,0.28389 -1.235583,0.66999 -1.235583,0.85731 0,0.18732 0.597619,0.64537 1.328084,1.01803 0.821132,0.4189 1.558794,1.16155 1.932699,1.94562 0.758355,1.59029 1.174443,1.59748 1.828312,0.0325 0.300714,-0.71973 1.044342,-1.54719 1.781803,-1.9823 0.696169,-0.41074 1.219352,-0.87633 1.16272,-1.03457 -0.05672,-0.15825 -0.658372,-0.65959 -1.336869,-1.11466 -0.678497,-0.45506 -1.440539,-1.25799 -1.693437,-1.78387 -0.283357,-0.58921 -0.500872,-0.89097 -0.743107,-0.8909 z m 163.401912,16.7783 -5.2e-4,5.2e-4 c -0.0199,-7e-4 -0.04,-5.6e-4 -0.0615,5.2e-4 -0.17919,0.0118 -0.53526,0.62825 -0.79168,1.36891 -0.57074,1.64856 -1.18245,2.2906 -2.65721,2.78949 -1.66042,0.56169 -1.59646,1.30135 0.16588,1.91513 1.4818,0.51607 2.01563,1.15096 2.76469,3.29075 0.28611,0.81733 0.44691,0.92947 0.85267,0.59273 0.2751,-0.22832 0.59896,-0.86373 0.71933,-1.4118 0.26353,-1.19977 0.97327,-1.87526 2.7342,-2.60242 0.72696,-0.30021 1.32188,-0.69128 1.32188,-0.86868 0,-0.17741 -0.72469,-0.59922 -1.61023,-0.93741 -1.25969,-0.48108 -1.72914,-0.89446 -2.15749,-1.8986 -0.82473,-1.9333 -0.98091,-2.22868 -1.28003,-2.23914 z"
       sodipodi:nodetypes="cccccssscsscscsscsccsssssssscscsscsssssssssssssccssssscsscccsssscccccccsccsssssscssscccsssssssssscssc" /><path
       id="path344"
       style="display:inline;fill:#f5ecd6;stroke-width:0.83331"
       inkscape:label="13 lua 4"
       d="M 0,0 V 0.99993896 H 0.99993896 V 0 Z m 113.4799,40.304517 c -3.72034,-0.23283 -9.41004,0.232733 -16.352495,1.337902 -6.707889,1.067821 -14.103408,3.783197 -21.119125,7.754566 -10.948321,6.197506 -20.663144,16.193249 -27.525968,28.322302 -0.548452,0.969295 -1.213818,2.014361 -1.478979,2.321822 -0.832581,0.965417 -3.268214,7.026185 -4.520655,11.248409 -3.847205,12.969722 -4.241136,25.548062 -1.200443,38.342362 0.565862,2.38097 1.421629,5.37347 1.902209,6.65024 l 8.884729,15.96802 7.047115,2.07997 5.768124,-1.62264 8.34626,-3.06906 1.722892,-3.08301 5.86941,-9.67848 12.288138,-12.56823 0.110071,-3.4308 0.356568,-4.38836 -0.740007,-0.58549 -2.429826,1.82056 c 0.09694,0 0.176734,0.0797 0.176734,0.17673 0,0.097 -0.07983,0.1757 -0.176734,0.1757 -0.09681,0 -0.1757,-0.0788 -0.1757,-0.1757 0,-0.0276 0.0062,-0.0537 0.01757,-0.077 l -0.527099,0.3328 c 0.0029,0.002 0.0052,0.003 0.0072,0.005 0.07389,0.0739 -0.576248,0.47947 -1.444357,0.90123 l -2.610176,1.53014 h -5.17e-4 c -0.364497,0.29386 -0.875132,0.67864 -1.522905,1.1436 -1.211609,0.86968 -3.23422,2.63468 -4.494299,3.92173 -1.260079,1.28706 -2.7192,2.56593 -3.242696,2.8422 -0.475736,0.2511 -0.883363,0.40965 -1.112594,0.46354 l -0.0186,0.0103 -1.373043,0.43409 -1.830896,-0.0532 c -0.04938,0 -0.09399,-0.0203 -0.12609,-0.0532 l -0.756027,-0.31988 c -0.0244,0.0136 -0.06115,0.0207 -0.111104,0.0207 -1.145282,0 -2.940687,-2.03998 -3.578076,-4.06642 -0.544993,-1.73267 -0.567951,-2.3148 -0.195854,-4.855 1.512847,-10.32789 5.230441,-19.60565 10.832414,-27.030395 2.738014,-3.628904 7.224172,-7.939002 9.45627,-9.085751 0.768456,-0.394799 2.310641,-1.270277 3.427181,-1.945617 2.103088,-1.272026 5.522016,-2.460902 8.501807,-2.956926 l 1.719273,-0.286287 0.96584,-2.643767 c 1.36671,-3.741553 4.35928,-10.332345 5.57382,-12.276253 0.56568,-0.905365 1.70695,-2.915014 2.53628,-4.465877 0.82934,-1.550864 1.9357,-3.296218 2.45824,-3.8778 0.52254,-0.581569 1.37804,-1.770379 1.9017,-2.642732 0.52365,-0.872366 1.58327,-2.379869 2.35489,-3.34915 0.77163,-0.969295 1.79531,-2.581808 2.27428,-3.583761 0.6756,-1.413259 1.09872,-1.871652 1.88722,-2.044836 1.2245,-0.268947 2.67778,-1.720407 2.41329,-2.409672 -0.19059,-0.496706 -1.30398,-0.626083 -10.13529,-1.178739 z m -14.420313,2.047937 c 0.113186,-0.0064 0.23491,-0.0056 0.362768,10e-4 0.852425,0.04508 1.962745,0.371259 2.416905,0.82889 0.50288,0.506728 0.47301,0.618898 -0.32814,1.232483 -0.48464,0.37118 -1.31776,0.772331 -1.851053,0.891935 -0.623935,0.140002 -1.043594,0.513141 -1.177189,1.045414 -0.114234,0.454929 -0.490391,1.082968 -0.836642,1.396298 -0.978111,0.885192 -2.860464,1.039289 -3.889168,0.31781 -1.722279,-1.207901 -1.797517,-1.800711 -0.42323,-3.338815 0.762534,-0.853423 1.417188,-1.172313 2.879927,-1.403531 1.041149,-0.164591 2.008324,-0.486885 2.14974,-0.715719 0.09655,-0.156248 0.356552,-0.23665 0.696082,-0.255798 z m 13.805363,7.019209 c 0.0457,0.0013 0.0835,0.01526 0.11058,0.04237 0.10847,0.108522 -0.087,0.304819 -0.4346,0.437183 -0.50233,0.191276 -0.5424,0.151223 -0.19688,-0.196888 0.17931,-0.180664 0.38392,-0.286694 0.5209,-0.28267 z m 50.93229,1.233 -0.65888,1.848983 -2.07842,4.173389 c -1.14326,2.295503 -2.24954,4.649636 -2.45825,5.231205 l -0.18965,0.527616 v 0.001 l -0.002,0.0052 -0.1881,0.523483 -0.015,-0.02842 -0.7736,1.88774 -11.4918,19.523356 -1.58388,1.739428 c 0.13165,0.212996 -0.24665,1.045274 -0.84078,1.850017 -0.59411,0.804757 -1.67211,2.414408 -2.3952,3.577559 -2.02834,3.262702 -7.12618,10.346671 -9.07128,12.604911 -2.07379,2.40764 -7.86072,7.43799 -8.1039,7.04453 -0.0121,-0.0196 -0.0177,-0.0681 -0.017,-0.14211 l -3.19361,2.64325 -5.5857,9.55704 4.16098,2.84066 7.30808,3.16363 6.85282,-5.56659 9.43095,-9.88156 12.11347,-14.052376 8.78034,-13.762467 5.46633,-11.757939 4.07314,-11.598775 0.86041,-7.669816 z m 7.67911,5.790344 c 0.0968,0 0.17622,0.07928 0.17622,0.176217 0,0.09698 -0.0793,0.176217 -0.17622,0.176217 -0.0968,0 -0.17673,-0.07928 -0.17673,-0.176217 0,-0.09698 0.0798,-0.176217 0.17673,-0.176217 z m -1.11052,4.644678 c 0.0333,-0.003 0.0712,0.01441 0.11162,0.05478 0.1293,0.129233 0.1293,0.340572 0,0.469739 -0.1293,0.129234 -0.23513,0.02387 -0.23513,-0.234611 0,-0.177668 0.0502,-0.283297 0.12351,-0.289905 z m -0.23255,1.488798 h 5.2e-4 c 3e-4,-3.7e-5 7.3e-4,3e-6 0.001,0 0.0377,-4.15e-4 0.0579,0.06959 0.0579,0.21084 0,0.290784 -0.13569,0.84579 -0.3023,1.233516 -0.19092,0.444331 -0.30335,0.509989 -0.30335,0.176734 0,-0.290784 0.13674,-0.846307 0.30335,-1.234033 0.10742,-0.249936 0.18925,-0.379976 0.24081,-0.38654 6.2e-4,-8e-5 10e-4,-4.09e-4 0.002,-5.17e-4 z m -2.7776,9.19117 c 0.44969,0.449689 -4.07563,10.86295 -6.89622,15.868799 -2.29163,4.067092 -5.77835,9.287288 -9.04338,13.538188 -2.18858,2.84943 -4.14338,5.00971 -3.53725,3.90933 0.16018,-0.29078 1.10861,-1.5594 2.10736,-2.81947 1.70914,-2.1563 5.21218,-7.257411 7.99745,-11.644251 2.01194,-3.168839 5.68973,-10.431989 7.52615,-14.864209 0.94024,-2.269289 1.77043,-4.063844 1.84589,-3.988387 z m -87.405005,2.350761 c 0.0039,-2.8e-4 0.0083,-1.11e-4 0.01085,0 0.03183,0.001 0.04857,0.01896 0.04857,0.05426 0,0.618341 -4.403092,4.836369 -6.295739,6.031157 -0.742504,0.468711 -2.196592,1.103645 -3.230811,1.410766 -2.129222,0.632306 -4.25072,0.679332 -5.80533,0.128158 -1.346514,-0.477396 -2.996717,-1.626419 -2.996717,-2.086694 0,-0.19472 0.406357,-0.03392 0.902788,0.356567 1.536505,1.208608 4.354274,1.594422 6.892602,0.944129 3.230751,-0.827668 5.498476,-2.185373 8.154024,-4.881873 1.127073,-1.144467 2.077807,-1.938247 2.319755,-1.955953 z m 93.834065,1.71049 c -0.20375,0 -0.37052,0.05818 -0.37052,0.128674 0,1.535851 -0.98483,4.259272 -2.22984,6.165516 -0.84109,1.287773 -1.88871,3.213619 -2.32802,4.279842 -0.43931,1.066222 -1.24903,2.652496 -1.79886,3.524849 -0.54981,0.872367 -1.31607,2.326583 -1.70274,3.231844 -0.38666,0.905248 -1.23968,2.253139 -1.89652,2.995683 -0.65684,0.742544 -2.22703,2.93656 -3.48816,4.875158 -1.26114,1.93858 -2.95503,4.28774 -3.76463,5.22035 -1.5988,1.84175 -1.72185,2.36352 -0.98598,4.16512 0.81356,1.99182 1.67932,9.14645 1.4304,11.8184 -0.96852,10.39659 -5.97826,19.82456 -15.48588,29.14396 -1.53669,1.50628 -2.53401,2.4257 -2.99671,2.79621 -3.3e-4,2.6e-4 -0.002,0.002 -0.002,0.002 l -2.63757,2.64428 3.82664,-0.58911 27.26191,-2.20865 10.712,-9.10539 c 0.49305,-0.85031 0.78432,-1.36167 0.7705,-1.36167 -0.13997,0 1.01033,-1.80268 1.87895,-4.37131 3.56629,-10.54588 4.91449,-18.91301 4.58629,-28.46183 -0.34531,-10.04597 -2.12392,-18.022235 -5.69733,-25.552447 -0.67246,-1.417085 -1.22266,-2.817915 -1.22266,-3.112472 0,-0.294544 -0.55146,-1.258604 -1.22577,-2.141988 -0.6743,-0.883383 -1.4595,-2.164016 -1.74459,-2.846338 -0.28509,-0.682336 -0.68508,-1.240751 -0.88884,-1.240751 z M 51.839213,92.728707 c 0.0052,-4.23e-4 0.01026,-2.06e-4 0.01602,0 0.171089,0.0066 0.310058,0.335026 0.310058,0.980819 0,1.282624 1.228345,2.865626 2.228805,2.872176 0.905758,0.0064 1.85507,0.533736 1.422135,0.790132 -0.166097,0.09837 -0.807047,0.287419 -1.423685,0.419613 -1.378177,0.295435 -1.696065,0.666524 -2.206067,2.574003 -0.218551,0.81746 -0.442096,1.48768 -0.499711,1.4981 h -10e-4 -5.17e-4 -5.16e-4 -5.17e-4 l -0.001,-5.2e-4 c -0.06131,-0.023 -0.336287,-0.76684 -0.6165,-1.67328 -0.459881,-1.487546 -0.682871,-1.732023 -2.000394,-2.192114 -1.753589,-0.612381 -1.86312,-0.929068 -0.429948,-1.243852 1.208556,-0.265449 2.431465,-1.649945 2.71663,-3.075781 0.124189,-0.620864 0.318698,-0.936198 0.486275,-0.949296 z m 121.560027,1.028361 c 0.14117,0 0.45667,0.674205 0.70124,1.4981 0.5211,1.755528 0.89969,2.277713 2.24741,3.099552 l 0.99529,0.606681 -1.3472,0.658358 c -1.03744,0.506701 -1.46626,1.002431 -1.86501,2.155941 -0.28481,0.82389 -0.61676,1.4981 -0.73742,1.4981 -0.12065,0 -0.41381,-0.64871 -0.65112,-1.44074 -0.37504,-1.25182 -0.6694,-1.54441 -2.25413,-2.24379 l -1.82314,-0.805119 1.22938,-0.260449 c 1.76041,-0.373328 2.74763,-1.429828 3.01739,-3.228744 0.12681,-0.846008 0.34615,-1.53789 0.48731,-1.53789 z M 59.237728,112.91094 c 0.213166,-3.4e-4 0.393146,0.14647 0.701249,0.42529 0.859895,0.77823 0.874784,1.64097 0.04134,2.39521 -0.833761,0.75455 -0.818666,0.75775 -1.958537,-0.43202 l -0.973067,-1.01544 1.102258,-0.78445 c 0.560871,-0.39937 0.845163,-0.58821 1.086756,-0.58859 z m 103.633982,0.0212 c 0.65388,0.0165 1.24926,0.83573 0.81907,1.51774 -0.49506,0.78482 -0.9615,0.90764 -1.48001,0.38913 -0.57839,-0.57832 -0.53713,-1.1662 0.11937,-1.71101 0.17097,-0.1419 0.35848,-0.20047 0.54157,-0.19586 z m 10.39317,8.64754 0.4625,1.27744 c 0.34483,0.95356 0.82109,1.43847 1.87999,1.91255 l 1.41903,0.6351 -1.31671,0.62477 c -0.92727,0.44002 -1.49182,1.03804 -1.90996,2.02261 l -0.59376,1.39733 -0.57,-1.45004 c -0.5354,-1.36303 -0.96457,-1.70635 -2.91558,-2.33526 -0.58728,-0.18931 -0.4646,-0.32996 0.77101,-0.88315 0.98681,-0.44181 1.68237,-1.07447 2.1208,-1.92908 z M 51.790637,127.5948 c 0.0018,-2.7e-4 0.0035,-1e-5 0.0052,0 0.106373,5.3e-4 0.510423,0.59545 0.898136,1.32188 0.484195,0.90722 1.064228,1.42614 1.85105,1.65778 1.287878,0.37915 1.525898,0.89658 0.412895,0.89658 -0.858808,0 -2.792595,1.81177 -2.792595,2.61638 0,0.92414 -0.546458,0.62619 -1.081587,-0.58963 -0.289657,-0.65811 -1.010675,-1.39777 -1.693954,-1.73891 l -1.189075,-0.59479 1.243335,-0.51883 c 0.89503,-0.37397 1.370463,-0.87372 1.700155,-1.78543 0.247851,-0.68545 0.535951,-1.24812 0.646472,-1.26503 z m 11.422559,12.49691 c 0.406852,0.0156 0.977051,0.73757 0.698148,1.01647 -0.127596,0.12747 -0.4433,0.23151 -0.701766,0.23151 -0.525068,0 -0.643047,-0.90786 -0.157096,-1.20819 0.04847,-0.03 0.102563,-0.042 0.160714,-0.0398 z m 99.650244,1.00097 c 0.15676,-3.3e-4 0.30806,0.0829 0.49972,0.24185 0.29441,0.24435 0.53485,0.70428 0.53485,1.02164 h 5.1e-4 c 0,0.89631 -1.13967,1.46372 -1.86862,0.93069 -0.78001,-0.57033 -0.75618,-0.99014 0.0992,-1.76423 0.32146,-0.29091 0.53279,-0.42954 0.73432,-0.42995 z m -57.27092,15.68018 -6.912755,8.91263 -2.261878,9.16069 0.995805,7.84293 11.301638,4.74958 31.06942,-4.73873 18.09192,-1.56166 0.8077,-6.24613 -2.09806,-1.82315 0.0357,-1.3379 c 0.028,-1.06775 -0.24268,-1.67036 -1.33842,-2.98121 -0.75533,-0.90361 -1.7832,-1.80341 -2.28358,-1.99936 -4.50514,-1.76418 -9.87481,0.64134 -12.14758,5.44152 -0.97748,2.06447 -0.95857,2.05883 -2.7776,0.73433 -1.16759,-0.85022 -4.51373,-1.29576 -6.2513,-0.83251 -1.57875,0.42092 -2.95265,1.72369 -3.86488,3.66437 -0.39653,0.84358 -0.839,1.52894 -0.9834,1.52239 -0.1444,-0.007 -0.71457,-0.34827 -1.26711,-0.76016 -0.62065,-0.46268 -1.69861,-0.8025 -2.81998,-0.88935 -2.95199,-0.22868 -3.35685,-0.37139 -3.16208,-1.11621 0.22511,-0.86082 -1.87395,-2.50941 -3.19464,-2.50941 -1.21034,0 -3.31793,1.07558 -4.41989,2.25619 -0.95535,1.02353 -1.84392,1.16944 -2.47737,0.40618 -0.67762,-0.81649 -3.96551,-1.42773 -4.92321,-0.91519 -0.43597,0.23365 -0.87351,0.34347 -0.97255,0.24443 -0.20733,-0.20733 0.73762,-2.65598 1.99626,-5.33507 z m -34.853685,2.68562 c -1.23247,0.0166 -2.492896,0.73324 -3.185852,1.91978 l -0.679029,1.16221 1.40715,1.47174 c 2.462019,2.57432 2.281902,3.22404 -0.858863,3.09697 -2.531189,-0.10244 -5.198096,1.11474 -6.756177,3.08198 -0.636747,0.80396 -1.301065,1.46141 -1.475362,1.46141 -0.174298,0 -0.701894,-0.75349 -1.173055,-1.67431 -3.080085,-6.01962 -10.218703,-7.457 -14.709179,-2.96158 -1.110383,1.1116 -1.775731,2.15038 -2.065507,3.22564 -0.810782,3.00857 -0.931111,3.17242 -2.334742,3.17242 -3.470195,0 -5.877546,1.73355 -7.002156,5.04207 -0.538512,1.58427 -0.950654,2.23139 -1.261939,1.92753 l 0.778247,3.79357 0.903304,0.67592 16.625342,-1.84019 4.621424,3.62871 13.657047,-1.711 2.676323,-4.98885 6.878649,-15.11949 -2.265494,-3.42563 c -0.10893,0.0636 -0.465767,-0.17513 -0.813904,-0.5488 -0.362286,-0.38888 -1.156791,-0.91275 -1.765267,-1.16479 -0.382627,-0.15848 -0.790137,-0.23085 -1.20096,-0.22531 z" /><path
       id="path343"
       style="display:inline;fill:#d0c5b0;stroke-width:0.83331"
       inkscape:label="12 lua 3"
       d="M 0,0 V 0.99993896 H 0.99993896 V 0 Z m 96.949638,51.813375 c -0.205305,0 -0.373104,0.158058 -0.373104,0.351916 0,0.193857 0.07007,0.352434 0.155546,0.352434 0.08554,0 0.253238,-0.158577 0.373104,-0.352434 0.119867,-0.193858 0.04981,-0.351916 -0.155546,-0.351916 z m -1.61954,5.991882 c -1.34075,0 -3.33623,2.203135 -3.33623,3.683496 0,0.913087 0.613591,0.610409 0.997872,-0.491959 0.198952,-0.570697 0.926969,-1.403474 1.616955,-1.850533 1.342269,-0.869703 1.595538,-1.341004 0.721403,-1.341004 z m -20.112467,1.435571 c -1.77709,0.01841 -3.898902,0.515723 -5.761405,1.425753 -4.176636,2.040734 -8.011153,6.719744 -9.215975,11.245825 -0.902392,3.389981 0.484635,6.471821 3.63647,8.079611 1.215499,0.620044 1.930631,0.738214 3.705717,0.610815 7.035983,-0.504985 14.190348,-7.923213 14.190348,-14.712797 0,-3.057196 -1.048752,-4.728667 -3.859196,-6.151046 -0.687759,-0.348077 -1.629697,-0.509202 -2.695959,-0.498161 z m 7.79384,16.944703 c -0.673323,-0.005 -1.077365,0.249279 -1.720309,1.013374 -1.069471,1.270992 -1.202702,2.616409 -0.311092,3.135726 0.932968,0.543406 1.116529,0.479753 2.438611,-0.842325 0.917942,-0.917946 1.195022,-1.466738 1.110526,-2.20245 -0.09301,-0.809604 -0.303978,-0.998938 -1.211295,-1.087272 -0.108601,-0.01061 -0.210247,-0.01632 -0.306441,-0.01705 z m -35.897034,4.982124 c -0.0055,4.66e-4 -0.01078,0.0019 -0.01602,0.0036 -1.143238,0.381081 -4.75371,11.243112 -6.233728,18.754411 -0.980049,4.973894 -1.324413,15.658324 -0.68988,21.404374 0.827275,7.49149 4.345184,19.35772 7.439339,25.09408 l 1.39113,2.57968 1.693436,1.44746 3.033924,1.59267 7.321,2.85771 4.739762,-3.32538 7.437272,-1.93787 3.411678,-4.63176 6.913273,-10.14511 9.335348,-9.09351 0.83044,-5.50819 -0.451135,-4.32635 -1.83348,1.41749 c 0.487734,0.063 -0.223502,0.75451 -2.376082,1.83451 -3.043589,1.52705 -5.203007,3.14927 -8.874394,6.66729 -3.525714,3.37844 -4.844916,4.02415 -7.737512,3.78427 -2.456504,-0.20371 -3.926215,-1.29135 -5.04362,-3.73207 -0.831572,-1.81641 -0.869063,-2.15112 -0.642338,-5.73402 0.132429,-2.09281 0.391859,-4.33115 0.576192,-4.97386 0.184319,-0.64271 0.334863,-1.65612 0.334863,-2.25206 0,-1.0304 -0.09024,-1.09975 -1.850016,-1.41231 -1.593819,-0.28308 -1.840084,-0.43302 -1.773535,-1.08314 0.13636,-1.33344 -1.217354,-1.30136 -2.580204,0.0615 -1.380679,1.38069 -1.475021,1.91886 -0.492993,2.80758 1.000564,0.90549 0.876064,1.82313 -0.407727,2.99569 l -1.113628,1.01596 -1.673799,-1.47692 -1.674317,-1.47743 0.982369,-1.0573 c 0.540356,-0.58158 1.163307,-1.40983 1.384412,-1.84071 0.221104,-0.43089 1.31086,-1.22376 2.421558,-1.76217 1.852363,-0.89792 2.11777,-1.17942 3.204455,-3.40031 1.983195,-4.05314 1.932563,-6.706665 -0.171049,-9.035101 -0.680331,-0.753052 -1.792981,-1.553166 -2.473234,-1.777669 -1.288663,-0.425302 -3.790133,-0.220155 -4.708756,0.386023 -0.461912,0.304834 -0.450602,0.408595 0.08837,0.821655 0.339255,0.260011 0.6165,0.558326 0.6165,0.663009 0,0.104684 -0.832264,0.38567 -1.850016,0.624251 -1.017766,0.23858 -2.043716,0.586951 -2.279964,0.774113 -0.236249,0.187164 -0.61468,1.280649 -0.840776,2.429819 -0.226083,1.14918 -0.540526,2.169 -0.699182,2.26705 -0.158657,0.0981 -0.463095,-0.50041 -0.676445,-1.33015 -0.817175,-3.17813 -0.861505,-3.242511 -2.670638,-3.910872 -2.437588,-0.900535 -2.573323,-1.181634 -0.807185,-1.673283 1.877805,-0.522732 3.01649,-1.673719 3.33468,-3.36982 0.197446,-1.052524 0.01576,-1.712617 -1.044381,-3.787882 -0.753008,-1.473992 -1.522248,-3.720227 -1.861385,-5.432744 -0.329579,-1.664168 -0.710057,-2.794955 -0.936894,-2.796212 -0.0018,-1e-5 -0.0039,-1.55e-4 -0.0057,0 z M 181.05303,93.06512 c -0.22674,0.0073 -0.85266,0.649313 -1.39061,1.426787 -0.53796,0.777474 -1.52908,1.738492 -2.20245,2.135787 -1.44826,0.854496 -1.33299,1.207388 0.56224,1.717724 1.65636,0.446011 1.55508,0.876429 -0.28577,1.212846 -2.43484,0.444976 -3.02494,1.151026 -3.76825,4.508256 -0.33209,1.49993 -0.75952,1.16042 -1.39629,-1.10898 -0.32072,-1.14305 -0.77752,-2.23464 -1.01545,-2.42518 -0.23792,-0.19055 -1.3446,-0.607466 -2.45928,-0.92707 -1.11468,-0.319605 -2.02726,-0.775618 -2.02726,-1.012858 0,-0.23724 -0.71129,-0.809187 -1.5813,-1.270724 -1.91538,-1.016103 -2.00646,-0.960683 -4.17236,2.541447 -2.04372,3.304545 -2.16509,3.789215 -1.47484,5.867345 0.90725,2.73149 0.96654,5.68006 0.14211,7.03574 -0.5934,0.97578 -0.82861,1.10127 -1.70171,0.90951 -0.55736,-0.12242 -1.10663,-0.0713 -1.2206,0.11317 -0.11397,0.1845 -0.0312,1.64358 0.18397,3.2427 0.4354,3.23521 0.16076,5.67649 -1.3131,11.66337 -0.94098,3.82219 -2.33607,7.14936 -4.2385,10.10894 -0.70979,1.1042 -1.80131,2.8005 -2.42517,3.7698 -5.17309,6.83221 -11.36908,13.80325 -19.50475,17.0403 l 2.75052,0.13735 8.62966,-5.62384 14.97635,1.86604 7.52615,6.39599 1.56115,1.78956 2.54765,-2.74247 c 0.46082,-0.8798 1.2387,-2.13814 1.81849,-2.61586 l 2.30322,-3.31298 0.0625,-0.0326 c 1.82367,-2.95063 4.15762,-7.02458 4.52633,-8.18296 0.0908,-0.28502 0.52082,-1.48175 0.9307,-2.48047 2.95061,-7.18959 5.40813,-16.00856 6.27042,-22.50508 0.70673,-5.32461 0.54609,-15.16483 -0.3421,-20.97185 -0.82022,-5.362643 -1.62438,-8.29078 -2.2717,-8.26978 z M 53.387439,94.93219 c -0.0987,0.0053 -0.164848,0.08162 -0.164848,0.21394 0,0.2053 0.15908,0.373104 0.35295,0.373104 0.193843,0 0.352433,-0.07058 0.352433,-0.156063 0,-0.08549 -0.15859,-0.252773 -0.352433,-0.372587 -0.06052,-0.03744 -0.117958,-0.05634 -0.167948,-0.05839 -0.0069,-2.81e-4 -0.01357,-3.53e-4 -0.02015,0 z m 118.036211,0.953947 c -0.64085,0.02952 -1.60267,0.514966 -1.90066,1.071769 -0.35829,0.669449 -0.30215,0.716093 0.7462,0.612366 1.10168,-0.109007 2.12836,-1.071448 1.65158,-1.548226 -0.10572,-0.105679 -0.28351,-0.145748 -0.49712,-0.135909 z m -8.50181,16.582963 c 0.38156,0.0151 0.75066,0.22962 1.12603,0.64441 0.48491,0.5358 0.53093,0.82555 0.22272,1.40146 -0.69169,1.29241 -1.59139,1.52043 -2.43912,0.61805 -0.92112,-0.9805 -0.94021,-1.35934 -0.10852,-2.11201 0.4233,-0.38308 0.81735,-0.56705 1.19889,-0.55191 z m -115.835825,2.22674 c 0.261636,0.0185 0.497644,0.27643 0.497644,0.62064 0,0.16155 -0.149343,0.29352 -0.331763,0.29352 -0.478352,0 -0.792936,-0.62221 -0.428397,-0.8475 0.08515,-0.0527 0.175308,-0.0729 0.262516,-0.0667 z m 126.034165,5.33921 c 0.17801,0.001 0.36937,0.24522 0.47388,0.75964 0.47174,2.32199 1.33065,3.40935 3.08094,3.90157 1.95676,0.55028 2.13059,0.98426 0.52865,1.31827 -1.9565,0.40792 -2.67576,1.10377 -3.27577,3.16777 -0.57181,1.96696 -0.78863,2.28684 -1.01285,1.49603 -0.0687,-0.24233 -0.30826,-1.11577 -0.53227,-1.94045 -0.45299,-1.66759 -1.30834,-2.38167 -3.28559,-2.74299 -0.72697,-0.13284 -1.32188,-0.37384 -1.32188,-0.53485 0,-0.16102 0.7504,-0.50488 1.66708,-0.76378 1.80991,-0.51119 3.2675,-2.14144 3.2675,-3.65455 0,-0.65615 0.19547,-1.00805 0.41031,-1.00666 z m -121.325409,5.86579 c 0.202476,-0.003 0.429246,0.49377 0.680062,1.48983 0.423974,1.68376 1.746342,3.01907 2.998784,3.02824 0.410035,0.003 0.983052,0.16207 1.273824,0.35295 0.70099,0.46018 0.05123,0.89654 -1.765267,1.18701 -1.554099,0.24851 -1.89209,0.60187 -2.484086,2.59622 -0.244554,0.8239 -0.540718,1.4981 -0.658358,1.4981 -0.117639,0 -0.490996,-0.78051 -0.829924,-1.73477 -0.543997,-1.53164 -0.800885,-1.80557 -2.190564,-2.3363 -1.729117,-0.66035 -1.777964,-1.04094 -0.1788,-1.39216 1.335759,-0.29338 2.343658,-1.5734 2.645316,-3.35897 0.149342,-0.88396 0.318785,-1.32746 0.509013,-1.33015 z m 11.371916,13.75524 c 0.600093,-0.0181 1.334802,0.58588 1.334802,1.18597 0,0.71483 -1.213846,1.25784 -1.707906,0.76378 -0.576146,-0.57608 -0.503944,-1.66022 0.126607,-1.90221 0.07768,-0.0299 0.160769,-0.0449 0.246497,-0.0475 z m 99.709163,0.62683 h 5.1e-4 c 0.003,-1.6e-4 0.004,0 0.007,0 0.14437,0 0.60899,0.486 1.03198,1.08004 l 0.76894,1.07952 -0.80666,0.85938 c -1.01541,1.08087 -1.41283,1.07643 -2.44792,-0.0253 l -0.83044,-0.88419 1.01131,-1.05471 c 0.54671,-0.57065 1.1097,-1.03933 1.26556,-1.05472 z"
       sodipodi:nodetypes="cccccssssssssssssssssssssssccssccsscccccccccccccsssssssscssccccsssssscssssscsssscsscccssssssssssssssscssscccccccccccsssccsssscsssssssscssssccssccccssssssssssccssssssssssccscccccsscccccccc" /><path
       id="path342"
       style="display:inline;fill:#c7b8a4;stroke-width:0.83331"
       inkscape:label="11  lua 2"
       d="M 0,0 V 0.99993896 H 0.99993896 V 0 Z m 75.435189,59.810819 c -3.257907,-0.0695 -8.55249,2.474111 -11.064958,5.540231 -2.064338,2.519262 -3.745508,6.376211 -3.745508,8.59224 0,1.035967 0.179566,2.219388 0.398942,2.629297 0.386258,0.721737 0.414024,0.724002 0.881084,0.08527 0.265279,-0.362776 0.482141,-1.080046 0.482141,-1.594218 0,-2.809274 2.416243,-7.068292 5.669421,-9.993188 1.846613,-1.660259 2.164286,-1.797082 7.118429,-3.062862 1.788409,-0.456934 3.042033,-0.952992 2.969327,-1.175122 -0.06917,-0.211415 -0.72243,-0.582545 -1.451074,-0.825273 -0.368233,-0.12267 -0.792381,-0.186443 -1.257804,-0.196371 z M 42.682663,94.586475 c -0.373683,1.18896 -1.104565,5.063586 -1.966805,10.423135 -0.987491,6.13799 -0.502277,16.90164 1.068669,23.71535 1.231822,5.34276 4.060481,13.46557 5.969661,17.14314 0.855991,1.64887 1.475305,3.12913 1.37666,3.28869 -0.04795,0.0776 -0.196028,0.14836 -0.397392,0.2005 l 1.965255,1.09399 6.068364,3.18534 4.698421,1.38648 6.356201,-3.39566 6.109188,-3.12746 10.094991,-13.00489 9.995772,-10.53269 0.86093,-5.75004 -0.989604,-3.74861 -2.15284,1.62368 c 0.05667,-4.1e-4 0.09399,0.007 0.109037,0.0217 0.08895,0.0889 -0.220486,0.83387 -0.687297,1.65571 -0.466812,0.82185 -0.91205,1.30432 -0.989603,1.07177 -0.478077,-1.43424 -8.621216,4.49873 -10.720793,7.8109 -0.99053,1.5626 -3.548065,2.56346 -6.49056,2.54041 -3.15228,-0.0247 -4.969709,-1.39767 -6.470923,-4.88756 -2.312354,-5.08364 -4.72282,-4.42792 -9.213391,-5.10305 l -1.41025,-0.19482 c -0.164582,-1.49325 0.627769,-3.54688 -0.170532,-4.91804 -0.727373,-0.44954 -0.315082,-1.49582 1.381311,-3.50211 0.972033,-1.14961 2.346191,-2.32911 3.112472,-2.67219 1.293236,-0.579 2.902665,-2.17579 2.902665,-2.87993 0,-1.10237 -6.281124,-7.339603 -7.033679,-7.339603 -2.332642,0 -2.703009,0.407915 -3.183785,3.498493 -0.365417,2.34901 -0.554484,2.84634 -1.081071,2.84634 -0.672274,0 -0.716321,-0.0972 -1.425236,-3.17242 -0.487274,-2.113732 -1.022677,-3.073325 -1.022677,-1.83244 0,1.10205 -0.564441,0.95959 -1.113627,-0.281123 -0.329246,-0.743825 -0.885751,-1.195741 -1.879989,-1.527039 -1.803303,-0.600892 -2.005446,-1.424923 -0.458369,-1.868619 2.027173,-0.581384 1.365988,-1.543451 -1.731678,-2.52026 -1.07347,-0.338501 -1.14779,-0.302446 -1.479496,0.752926 z m 138.613767,0.763261 -0.6258,0.956014 c -0.54707,0.834957 -0.56743,1.089817 -0.15865,2.013313 0.25739,0.581506 0.70916,1.104954 1.00356,1.163237 0.73453,0.145425 0.87748,-1.445805 0.2651,-2.94659 z m -5.80895,5.773294 c -0.318,0.3927 -0.6915,1.61693 -0.82941,2.72076 -0.82474,6.60076 -13.92966,-2.99725 -13.92318,0.45271 0.005,0.50314 0.40768,2.02521 0.89452,3.38222 0.60843,1.69994 0.93322,3.45651 2.32957,4.68757 1.30708,1.09983 1.25753,1.94539 -0.21342,3.66386 -1.18368,1.38288 -1.20574,1.46665 -1.00872,3.81682 0.27107,3.23329 0.11885,3.56115 -1.45004,3.12797 -1.88806,-0.52131 -3.48459,-0.28019 -3.76722,1.82057 -0.53344,3.96495 -3.17568,10.90065 -5.33042,13.99243 -0.6359,0.91242 -1.55244,2.32352 -2.03708,3.13676 -0.60574,1.01642 -1.48084,2.20706 -2.53163,3.47989 l 21.99504,4.23385 7.59643,-6.73344 3.7667,-10.19989 c 4.2e-4,-0.001 0.001,-0.003 0.002,-0.005 2.21337,-7.81575 2.80089,-13.08387 2.57349,-21.32066 -0.17748,-6.42866 -0.73415,-9.93921 -1.52807,-9.63456 -0.43707,0.16772 -6.07179,-1.19831 -6.53856,-0.62186 z m -9.82679,0.74052 c -0.79038,0 -1.0573,0.16295 -1.0573,0.64596 0,0.35541 0.10529,0.75236 0.23461,0.8816 0.36102,0.36101 0.98878,0.27936 1.45676,-0.18862 0.75233,-0.75232 0.47463,-1.33894 -0.63407,-1.33894 z m 7.57783,16.3897 c 0.60589,2e-5 0.74062,0.31851 0.9555,2.26704 0.30014,2.7216 0.88271,3.41967 3.22151,3.85661 3.07395,0.57427 3.09817,1.44684 0.0589,2.12701 -2.20498,0.49346 -2.90509,1.23484 -3.24321,3.43183 -0.11502,0.74747 -0.35184,1.63685 -0.52555,1.9761 -0.17372,0.33926 -0.45803,0.6165 -0.63201,0.6165 -0.3757,0 -0.58037,-0.66698 -0.87746,-2.86029 -0.30084,-2.22118 -0.76623,-2.714 -2.95021,-3.12384 -1.03274,-0.19381 -2.02411,-0.44291 -2.20297,-0.55345 -0.66037,-0.40813 -0.2959,-1.20981 0.64441,-1.418 3.54436,-0.78474 4.25445,-1.47091 4.61987,-4.46485 0.18843,-1.54381 0.34432,-1.85464 0.93121,-1.85466 z M 57.649194,130.58944 c 0.677265,0.52335 0.677265,0.53394 0,1.0573 -1.15447,0.89209 -4.306243,-0.15545 -4.976957,3.57395 -0.286985,1.59575 -0.68815,2.46061 -0.939477,2.02365 -0.09799,-0.17029 -0.445864,-1.13037 -0.77308,-2.13321 -0.677449,-2.07615 -0.982421,-2.40078 -2.864941,-3.05252 -1.678852,-0.58123 -1.931609,-1.19097 -0.624252,-1.50482 8.579125,-5.55073 0.394658,-5.13691 10.178707,0.0357 z m 105.098496,8.98809 c 0.3343,1e-5 2.20762,2.318 2.20762,2.73161 0,0.16619 -0.51797,0.80514 -1.15135,1.41904 l -1.15187,1.11569 -1.13947,-1.06505 c -0.62669,-0.5857 -1.13437,-1.25475 -1.12913,-1.48725 0.0118,-0.48233 1.95587,-2.71406 2.3642,-2.71404 z"
       sodipodi:nodetypes="cccccsssssssscsssssccccccccccccscssscccssscsssssssssccsscsssssssscsssccccssscssssssssssssssssssscssssssccccsssccccs" /><path
       id="path341"
       style="display:inline;fill:#a3afc5;stroke-width:0.83331"
       inkscape:label="10 cinza azulado"
       d="M 0,0 V 0.99993896 H 0.99993896 V 0 Z m 142.17375,51.538973 c -5.77473,-0.05873 -11.82798,3.622636 -14.46888,9.111589 -3.35947,6.982463 -1.81607,14.181312 4.33927,20.239074 1.16962,1.151089 2.55546,2.114291 3.57601,2.48512 0.91653,0.33303 2.45943,0.893236 3.42873,1.244885 1.14228,0.41441 2.69251,0.632431 4.40593,0.620117 2.23407,-0.01609 3.10256,-0.216818 5.60638,-1.297078 2.58953,-1.117242 3.22116,-1.578109 5.01364,-3.660759 1.12794,-1.310524 2.27744,-2.740502 2.55437,-3.177583 0.76898,-1.213734 1.63402,-9.180495 1.27021,-11.697994 -0.37147,-2.570548 -2.30302,-6.57082 -4.22972,-8.759672 -1.69434,-1.924871 -5.94941,-4.204387 -9.04854,-4.847767 -0.80281,-0.166663 -1.62245,-0.251541 -2.4474,-0.259932 z m 24.91373,0.671794 -0.44856,1.767334 -1.20354,4.568196 c -1.55976,5.91891 -2.76663,8.86088 -6.7076,16.353524 -0.50983,0.969289 -1.39617,2.708134 -1.96991,3.864364 -0.57373,1.15623 -1.57177,2.747647 -2.21795,3.536218 -0.64617,0.788571 -1.34716,1.887571 -1.55804,2.442228 -0.21089,0.55466 -1.02145,1.8974 -1.80041,2.984314 -0.77896,1.086914 -2.08696,3.007362 -2.90783,4.26744 -2.5528,3.918703 -4.88282,7.167554 -6.19859,8.643395 -0.69497,0.77953 -1.58115,1.87412 -1.96887,2.43241 -2.96097,4.26364 -15.47776,17.1471 -17.84181,18.36426 -0.90122,0.464 -1.71345,1.16053 -1.81798,1.56011 -0.18347,0.7016 -0.67195,0.8535 -1.57561,0.48886 -0.6964,-0.281 -0.5215,-1.10876 0.57154,-2.69906 0.55698,-0.81036 1.33657,-2.66364 1.7322,-4.11758 0.39562,-1.45393 1.15051,-3.99113 1.67793,-5.63893 2.30037,-7.18716 3.28449,-12.164367 2.64273,-13.363527 -0.84356,-1.576196 -2.74197,-0.735896 -6.04769,2.675287 -2.14312,2.21149 -6.30453,7.55248 -6.30453,8.0915 0,0.12631 -0.61077,1.19819 -1.35702,2.38228 -0.74626,1.1841 -1.68027,2.86695 -2.07532,3.73931 -0.39506,0.87236 -0.95173,1.89001 -1.23714,2.26188 -0.14458,0.18838 -0.23814,0.33804 -0.38447,0.40152 l -0.81029,1.8464 7.87136,4.11034 8.70076,4.84312 2.7683,1.16117 2.24431,-1.8464 7.54424,-7.16339 5.17333,-5.39915 9.78028,-9.7684 10.79624,-15.723069 6.81147,-13.97279 5.22759,-20.416325 -1.80971,-0.525033 z m -24.97161,0.458886 c 0.66922,0.01087 1.34514,0.06871 2.02469,0.17415 2.31116,0.358588 4.87611,1.279078 4.52944,1.62574 -0.0755,0.07552 -0.90796,-0.09459 -1.85054,-0.378271 -0.9426,-0.283679 -2.36331,-0.512805 -3.15639,-0.50953 -2.2374,0.0094 -6.16468,0.951829 -8.30906,1.993677 -1.1064,0.537544 -2.8178,1.847053 -3.97082,3.037541 -2.25437,2.327594 -2.54082,2.357216 -0.99012,0.103353 2.69925,-3.923208 7.03825,-6.123108 11.7228,-6.04666 z m 29.63954,3.034957 c 0.14908,1.98e-4 0.24939,0.231021 0.24804,0.749308 -0.003,1.294598 -2.62609,10.967832 -4.23591,15.620236 -4.09219,11.826482 -10.27811,22.565929 -18.9358,32.873966 -0.85481,1.01775 -1.70008,1.85001 -1.87895,1.85001 -0.71205,0 -0.23775,-1.00069 1.58956,-3.35173 2.34107,-3.01205 6.80774,-9.357204 7.9375,-11.275799 0.45661,-0.775433 1.37966,-2.258216 2.05156,-3.295406 1.65731,-2.558394 6.00353,-11.657145 7.93802,-16.618624 1.47429,-3.781146 3.30555,-9.978977 4.26175,-14.424959 0.27674,-1.286777 0.73962,-2.12738 1.02423,-2.127002 z m -30.26069,3.548104 c 0.47073,0.01924 0.73984,0.275941 1.09606,0.819588 0.70235,1.071912 0.26634,2.045189 -1.36116,3.037541 -0.61766,0.376618 -1.53454,0.68502 -2.0376,0.685746 -0.98311,0.0014 -2.08101,-0.956442 -2.08101,-1.815393 0,-0.734203 1.35528,-1.885903 2.78329,-2.364197 0.74569,-0.249757 1.23431,-0.37825 1.60042,-0.363285 z m -19.04431,41.377316 -1.57717,1.93839 c -0.86747,1.06622 -2.26753,2.85096 -3.11092,3.96565 -0.8434,1.11468 -1.60299,2.02623 -1.68775,2.02623 -0.51251,0 3.18705,-4.96286 4.86068,-6.52053 z m 22.84098,7.2254 c 0.64208,0 0.17774,0.92426 -1.39578,2.77709 -2.88137,3.39283 -9.12984,9.7097 -12.99662,13.13977 -4.01773,3.56391 -4.57789,3.97554 -4.8395,3.55224 -0.0945,-0.15286 2.19616,-2.46198 5.09116,-5.13095 2.895,-2.66898 7.19818,-6.98669 9.56272,-9.59528 2.36452,-2.6086 4.42489,-4.74287 4.57802,-4.74287 z m -29.50518,1.0573 c 0.0968,0 0.17622,0.0793 0.17622,0.17622 0,0.0969 -0.0793,0.17673 -0.17622,0.17673 -0.0969,0 -0.17673,-0.0798 -0.17673,-0.17673 0,-0.0969 0.0798,-0.17622 0.17673,-0.17622 z m -14.12472,57.53344 -4.563024,1.19373 -9.241296,14.95257 0.253214,6.42648 19.905246,-2.96674 -0.37724,-2.07739 c -0.0716,0.009 -0.11839,0.0139 -0.13642,0.0139 -0.12603,0 -0.92907,-0.9663 -1.78491,-2.14767 -0.85586,-1.18139 -1.81499,-2.28648 -2.13113,-2.45567 -0.7787,-0.41674 -2.68502,0.16863 -3.773418,1.15859 -0.809328,0.73614 -0.858664,0.74414 -0.595312,0.0966 0.1577,-0.38771 0.590092,-1.57754 0.95963,-2.64376 0.36954,-1.06622 1.29645,-3.21369 2.06034,-4.7718 1.68426,-3.43544 1.78962,-4.63092 0.4377,-4.97024 -0.70785,-0.17766 -1.04619,-0.0797 -1.32188,0.38292 -0.7582,1.27222 -2.410024,3.16578 -2.168863,2.48615 0.257799,-0.72655 1.437543,-2.78589 2.563663,-4.60023 z m -38.881859,9.08317 c -0.36556,0 -1.119053,0.23751 -1.674317,0.5271 -0.555264,0.28959 -1.527793,0.52749 -2.161108,0.52865 -0.892056,0.001 -1.487304,0.34581 -2.64325,1.5291 -1.355369,1.38738 -1.599387,1.50448 -2.668571,1.27228 -1.296969,-0.28166 -3.867621,-0.0149 -8.692492,0.9033 -2.433461,0.46306 -3.418567,0.51465 -4.229716,0.22221 -0.581582,-0.20967 -2.642274,-0.70704 -4.579566,-1.10536 -3.319321,-0.68255 -3.548251,-0.6892 -3.965649,-0.11834 -0.243611,0.33315 -0.442867,0.96324 -0.442867,1.3994 0,0.65283 -0.148785,0.97396 -0.378789,0.97772 l 0.106454,3.37912 0.875915,-0.19069 20.979082,-2.32234 0.535884,8.22172 0.682646,4.11448 8.642883,-2.36058 6.739641,-12.56461 -1.429371,-2.08927 c -0.36744,0.73275 -0.625679,1.19106 -0.72657,1.27279 -0.424328,0.34369 -0.497943,0.34817 -0.29869,0.0165 1.046782,-1.74238 -3.875492,2.36798 -6.265251,5.23173 -0.30864,0.36986 -0.7203,0.67231 -0.914156,0.67231 -0.615839,0 -0.383421,-1.04747 0.689364,-3.10937 2.701609,-5.19255 3.046399,-6.40788 1.818494,-6.40788 z" /><path
       id="path340"
       style="display:inline;fill:#a3a1a0;stroke-width:0.83331"
       inkscape:label="09 cinza escuro"
       d="M 0,0 V 0.99993896 H 0.99993896 V 0 Z m 41.238826,122.93823 v 1.08211 c 0,0.59488 0.229958,1.76142 0.510564,2.59209 0.280618,0.83067 0.676426,2.5619 0.880566,3.84782 0.56936,3.58659 3.415687,11.73986 5.367114,15.37529 0.741208,1.38081 1.172358,2.28614 1.331185,2.81689 v 5.1e-4 l 2.740918,3.5972 9.396326,2.77296 3.418913,-2.31563 8.34626,-3.06906 3.446301,-6.16551 -2.739367,0.0351 c -1.145457,1.36264 -2.512554,1.93146 -3.86023,1.59111 -0.449244,-0.11345 -1.768969,-0.7894 -2.93212,-1.50223 -1.513947,-0.9278 -2.472095,-1.27919 -3.372404,-1.23713 -0.869602,0.0406 -1.457612,-0.16159 -1.90531,-0.65629 -0.358028,-0.39561 -1.089896,-0.71572 -1.637627,-0.71572 -1.580601,0 -3.308541,-1.79015 -4.159436,-4.30982 -0.403381,-1.19446 -0.732771,-2.52809 -0.732771,-2.96364 0,-0.43557 -0.168589,-0.89638 -0.374655,-1.02371 -0.721099,-0.44567 -1.724246,0.99372 -2.130102,3.05666 -0.246336,1.25207 -0.587321,2.06809 -0.864547,2.06809 -0.252047,0 -0.713286,-0.87743 -1.025777,-1.95234 -0.695239,-2.39157 -1.463637,-3.20167 -3.528984,-3.72173 -2.134214,-0.53739 -2.219001,-1.5376 -0.158646,-1.86707 1.843102,-0.29471 3.148128,-1.56982 3.148128,-3.07578 0,-0.6227 -0.09729,-1.03547 -0.215491,-0.91726 -0.118163,0.11822 -0.789604,-0.093 -1.492415,-0.46974 -0.798573,-0.42801 -1.968711,-0.68523 -3.12074,-0.68523 -1.5593,0 -2.035838,-0.16867 -3.089734,-1.09399 z m 84.034144,10.19628 c 0,0 -3.36506,3.20403 -3.41891,3.4463 -0.0538,0.24227 -1.58853,2.36936 -1.58853,2.36936 l -0.6196,7.94216 -3.3383,10.79624 -1.53066,3.92069 9.00462,4.24522 11.19415,-3.59772 2.89388,-1.56114 8.68112,-5.86373 11.13679,1.35186 4.58784,5.02553 1.25522,3.12901 c 0.16881,-0.0724 1.4827,-0.9982 2.88199,-1.99833 0.16301,-0.50458 0.65367,-1.16951 1.70997,-2.48615 1.09246,-1.36175 2.9402,-4.1419 4.10621,-6.1774 2.37372,-4.14385 5.29538,-10.45923 4.98316,-10.77144 -0.11214,-0.11214 -0.53338,0.001 -0.93586,0.25322 -0.60408,0.37724 -0.93277,0.36968 -1.88464,-0.0408 -0.77668,-0.33498 -2.39377,-0.48581 -4.95577,-0.46302 -3.54074,0.0314 -3.88832,0.0979 -5.02346,0.96377 -0.67063,0.51153 -1.21905,1.16033 -1.21905,1.44125 0,0.76784 -0.97701,0.61392 -1.23352,-0.1943 -0.12301,-0.38771 -0.37163,-0.70487 -0.55242,-0.70487 -0.1808,0 -0.61309,-0.28496 -0.96066,-0.63252 -0.90696,-0.90695 -2.38843,-1.39648 -5.00745,-1.65519 -1.26008,-0.12445 -2.65196,-0.45963 -3.09283,-0.74518 -0.75832,-0.49118 -0.83428,-0.45708 -1.40974,0.63304 -0.33457,0.63377 -1.64658,2.26583 -2.91558,3.62665 -1.26901,1.36082 -2.82729,3.10805 -3.46284,3.88349 -2.20534,2.69065 -9.39433,8.42007 -12.20546,9.72705 -0.88528,0.4116 -2.22006,0.65777 -3.58634,0.66301 -1.83313,0.007 -2.34664,-0.13558 -3.26027,-0.90434 -1.10397,-0.92894 -1.31234,-1.36891 -0.71003,-1.21801 l -0.0884,-4.66897 3.47318,-9.07283 -0.26924,-8.48114 z"
       sodipodi:nodetypes="ccccccssssccccccccssssssscssssssccsscccccccccccccccssscscssssssssscsssccccc" /><path
       id="path339"
       style="display:inline;fill:#6890b5;stroke-width:0.83331"
       inkscape:label="08 azul medio"
       d="M 0,0 V 0.99993896 H 0.99993896 V 0 Z m 144.76532,57.884839 -7.43055,0.672827 -3.41943,3.123324 -1.64228,5.303552 7.61918,3.715535 6.84867,-1.455725 3.97444,-4.952152 -0.91519,-3.903638 z m -2.70681,1.026294 c 1.69621,-0.0096 3.03724,0.565495 2.86029,1.557011 -0.14595,0.817799 -1.84057,2.364399 -3.653,3.334163 -0.71925,0.384845 -1.74999,0.692326 -2.29082,0.683679 -1.10255,-0.01749 -3.61831,-1.367341 -3.62355,-1.944584 -0.005,-0.635077 1.85416,-2.190703 3.52175,-2.945556 1.02227,-0.462748 2.16761,-0.678979 3.18533,-0.684713 z m -45.640623,115.935047 -7.894608,9.52293 -0.265617,4.59713 22.773288,-3.35845 -2.49236,-1.40198 c -0.79532,0.0676 -1.58432,0.0985 -2.14457,0.0754 -1.03764,-0.0427 -2.52859,0.048 -3.31297,0.20102 -1.32759,0.2592 -1.45604,0.21252 -1.86036,-0.67489 -0.40583,-0.89071 -0.53813,-0.93746 -2.013309,-0.71624 -1.336178,0.20037 -1.612133,0.13863 -1.793689,-0.40204 -0.118032,-0.35135 -0.566146,-1.54811 -0.995805,-2.65979 l -0.781347,-2.02158 -0.926559,1.16324 c -0.510081,0.63975 -1.924303,2.56906 -3.14296,4.28707 h -10e-4 c -1.218656,1.71801 -2.42147,3.19002 -2.672705,3.27164 -0.251248,0.0816 1.8535,-3.29403 4.676717,-7.50187 0.925079,-1.37878 1.916348,-2.87843 2.879928,-4.35322 z m 0.244947,1.54667 c -0.04168,0.003 -0.07779,0.0129 -0.108004,0.0315 -0.199097,0.12301 -0.0342,0.646 0.392224,1.24489 0.758997,1.06592 1.74408,1.38645 1.74408,0.56741 0,-0.57041 -1.401928,-1.81326 -1.984375,-1.84382 -0.01507,-7.5e-4 -0.03003,-9e-4 -0.04393,0 z m -38.681877,1.603 -1.072803,1.25316 c -0.66116,0.77191 -0.960491,1.05743 -1.361157,1.05626 -0.0085,0.70173 0.115602,1.48968 0.500228,2.28514 l -1.608687,2.37091 -0.861447,8.34626 8.292001,-0.43046 1.204061,-2.56212 c -0.01984,0.0121 -0.03767,0.0186 -0.05323,0.0186 -0.195664,0 -0.285925,-0.19848 -0.199988,-0.4408 1.862778,-5.25007 2.135337,-6.29618 1.742529,-6.689 -0.322946,-0.32293 -0.55287,-0.28326 -1.00924,0.17312 -0.516592,0.51657 -0.530758,0.70546 -0.109038,1.49345 0.420581,0.78576 0.408164,0.97625 -0.09663,1.48105 -0.507959,0.508 -0.766125,0.52354 -2.091862,0.12454 -0.831795,-0.25034 -1.710009,-0.51079 -1.952336,-0.57878 -0.242326,-0.068 -0.447169,-0.56462 -0.453719,-1.10381 -0.0065,-0.5392 -0.238676,-1.37725 -0.515731,-1.8619 -0.813376,-1.42287 -0.675411,-1.87949 0.497644,-1.64486 1.139347,0.22786 1.724523,-0.23757 1.874821,-1.49138 0.07611,-0.63474 -0.180624,-0.88753 -1.315165,-1.29398 z m 8.412923,5.01262 c -0.395439,0.92557 -0.755434,1.77212 -1.068152,2.51354 l 1.129647,-2.40347 z m -8.87491,3.60443 h 5.16e-4 c 0.387909,-0.0271 0.782251,1.43942 0.473873,1.93838 -0.126678,0.20487 -0.379302,0.37207 -0.561722,0.37207 -0.438384,0 -0.428974,-2.01289 0.01033,-2.28461 0.02555,-0.0159 0.05119,-0.0239 0.077,-0.0258 z" /><path
       id="path338"
       style="display:inline;fill:#f2a311;stroke-width:0.83331"
       inkscape:label=" 07 laranja claro"
       d="M 0 0 L 0 0.99993896 L 0.99993896 0.99993896 L 0.99993896 0 L 0 0 z M 165.91907 25.025346 L 163.84736 25.115263 L 158.43322 27.278438 L 154.05985 30.069482 L 155.23859 32.899801 L 161.16174 31.795992 L 165.68911 28.322302 L 165.91907 25.025346 z M 164.27421 25.981877 C 164.69471 26.004487 164.748 26.192397 164.68866 26.736869 C 164.53751 28.122837 163.34605 29.418085 161.3023 30.418815 C 159.36921 31.365362 156.73793 31.693471 156.33309 31.038416 C 155.672 29.968738 161.12668 26.254433 163.72179 26.007198 C 163.95296 25.985178 164.13404 25.974347 164.27421 25.981877 z M 146.27944 52.418506 L 143.37678 52.575602 L 138.74864 52.61746 L 135.14886 54.023059 L 130.57601 56.986702 L 127.99425 60.764766 L 129.1885 61.472217 L 130.53984 60.520337 L 133.83369 57.626457 L 137.77609 55.679806 L 143.35249 55.037467 L 149.29218 56.274601 L 150.55877 55.12015 L 149.42395 53.727987 L 146.64273 52.524959 L 146.64221 52.524959 C 146.52176 52.488089 146.40111 52.452589 146.27996 52.418506 L 146.27944 52.418506 z M 141.86783 52.720296 L 141.86834 52.720296 C 144.69302 52.741266 145.73691 52.899657 147.12229 53.517664 C 149.26684 54.474336 149.10598 54.779412 146.81946 54.091272 C 145.87686 53.807593 144.45615 53.578467 143.66307 53.581742 C 141.42566 53.591142 137.49839 54.533571 135.35401 55.575419 C 134.24761 56.112964 132.53621 57.422472 131.38319 58.61296 C 130.3251 59.705414 129.44884 60.513787 129.36265 60.48313 L 129.36213 60.48313 L 129.36161 60.48313 C 129.36144 60.483076 129.36028 60.482661 129.36006 60.482613 L 129.35955 60.482613 L 129.35851 60.482096 L 129.358 60.481063 L 129.35748 60.480546 L 129.35696 60.480029 L 129.35696 60.479513 L 129.35645 60.478996 L 129.35645 60.478479 L 129.35645 60.477962 C 129.35593 60.476062 129.35541 60.472928 129.35541 60.470728 C 129.35541 59.010118 133.46392 54.980721 136.31571 53.644271 C 138.11228 52.802336 138.7448 52.697109 141.86783 52.720296 z M 99.6611 114.20595 L 98.968636 114.65037 L 98.022957 115.92574 L 95.882003 120.89753 L 96.255107 121.17142 L 100.15616 124.08648 L 101.1654 122.98216 L 102.4599 118.60361 L 100.59386 115.5578 L 99.6611 114.20595 z M 99.314351 114.64985 C 99.791315 114.67215 99.578805 115.96944 98.683382 118.45272 C 98.058805 120.18484 97.447928 121.58979 97.326359 121.57449 C 96.678817 121.49299 96.223584 121.13605 96.223584 120.71046 C 96.223584 120.0282 98.535198 115.04316 98.978455 114.76922 C 99.114133 114.68532 99.22603 114.64571 99.314351 114.64985 z M 149.98826 119.01341 L 148.80384 119.57875 L 147.96926 124.06168 L 146.07119 130.98064 L 142.62489 137.72493 L 139.05766 143.029 L 135.65167 146.73058 L 134.09983 147.0458 L 136.37669 147.6189 L 137.59367 147.28352 L 140.7821 143.52354 L 142.76803 140.59555 L 145.99057 136.45937 L 147.45767 133.74016 L 150.06939 125.63678 L 150.24406 121.6117 L 149.98826 119.01341 z M 100.35925 125.44919 L 94.338428 129.44636 L 86.073299 141.23841 L 83.434701 151.20007 L 79.665422 164.82301 L 76.21912 178.20359 L 76.542098 186.6036 L 82.896232 182.10775 L 91.296236 174.81155 L 100.88066 162.96525 L 105.59252 156.77286 L 111.94614 147.88865 L 114.04627 140.88856 L 115.28444 134.45381 L 112.20504 132.50561 L 108.91377 131.19923 L 103.07795 127.05736 L 100.35925 125.44919 z M 101.42637 127.60203 L 102.31985 128.30483 L 103.21334 129.00763 L 102.01341 132.44256 C 100.69369 136.21985 100.55838 137.34195 101.30131 138.35796 C 101.77462 139.00527 101.85166 139.00937 103.03764 138.44375 C 103.72015 138.11829 105.27776 136.65413 106.49944 135.1902 C 107.72111 133.72628 108.94385 132.52834 109.21607 132.52834 C 109.48829 132.52834 110.24494 132.85825 110.89762 133.26163 C 112.22572 134.08244 112.22378 133.97154 110.97307 138.34401 C 110.58486 139.701 109.65243 141.95985 108.90136 143.36334 C 107.38537 146.19616 103.80254 151.20937 103.29395 151.20937 C 103.11436 151.20937 102.91756 150.8006 102.85625 150.30142 C 102.75394 149.46821 102.57155 149.60556 100.63158 151.97574 C 99.469381 153.39568 96.308971 156.81751 93.60824 159.57992 C 90.907431 162.34239 88.487186 164.60287 88.23079 164.60287 C 87.974393 164.60287 87.765186 164.29033 87.765186 163.90834 C 87.765186 162.61983 90.166366 153.18053 91.614563 148.77645 C 92.405145 146.37222 93.051685 144.26938 93.051685 144.10335 C 93.051685 143.93735 92.74225 143.99543 92.363354 144.23202 C 91.984458 144.46854 91.583659 144.57164 91.473486 144.46147 C 91.234552 144.22255 93.18347 138.58381 94.196834 136.58184 C 95.667459 133.67648 98.291598 130.22612 100.32359 128.52549 L 101.42637 127.60203 z M 177.58193 217.40792 L 154.20351 219.69253 L 133.26267 223.42409 L 127.2465 221.13947 L 118.64185 224.10932 L 98.766581 227.61246 L 95.187472 238.57769 L 95.316663 252.54169 L 94.654171 257.53932 L 114.30103 255.2547 L 155.80289 247.41125 L 154.88925 254.64544 L 160.75246 254.07441 L 165.3465 253.6269 L 167.68227 246.49762 L 176.66777 242.61361 L 181.237 230.73424 L 182.15064 220.75862 L 177.58193 217.40792 z " /><path
       id="path336"
       style="display:inline;fill:#f76205;stroke-width:0.83331"
       inkscape:label="06 laranja"
       d="M 0,0 V 0.99993896 H 0.99993896 V 0 Z m 167.10608,23.82852 -11.05772,4.365625 -3.97702,3.750675 -2.05569,3.655074 3.92172,1.942001 7.34839,-3.464905 3.88349,-2.39882 3.04581,-5.634798 z m -2.70991,1.988509 c 0.9439,0.0069 0.96238,0.607791 0.16691,2.023132 -0.90525,1.610679 -2.55763,2.805898 -5.04517,3.647323 -1.938,0.655548 -3.92568,0.767881 -4.25142,0.240812 -0.60194,-0.973954 5.61249,-5.320623 8.32663,-5.823934 0.3177,-0.05891 0.58523,-0.08895 0.80305,-0.08733 z m -66.817113,97.988331 -5.726266,2.70268 -10.043831,11.66234 0.0088,3.16931 h 5.17e-4 l 5.16e-4,-5.1e-4 h 5.17e-4 5.17e-4 c 0.153875,0 1.320743,-0.97294 2.593123,-2.16318 1.192855,-1.11585 2.262359,-1.96184 2.483053,-1.97145 v 5.1e-4 c 0.01467,-6.4e-4 0.02562,0.003 0.03256,0.009 0.111351,0.11122 -1.231519,2.55232 -2.983797,5.42447 -3.818542,6.25891 -3.907589,6.45594 -2.915068,6.45594 0.408464,0 0.743107,0.16419 0.743107,0.36483 0,0.20064 -0.859673,1.98436 -1.910477,3.96462 -5.583762,10.5227 -15.16128,34.65405 -16.745748,37.02565 -0.04449,0.0445 -0.15476,0.0992 -0.316777,0.16019 l 0.366386,1.89756 9.176184,1.71359 11.650969,-3.73155 4.264339,-1.52291 0.732772,-1.52238 c -0.718853,-0.0402 0.28797,-1.89208 3.642155,-6.88899 4.794976,-7.14335 7.814562,-11.90483 9.727052,-15.33498 0.72959,-1.30854 1.4903,-2.37867 1.68982,-2.37867 0.53987,1.06511 0.0374,2.85162 -0.0992,4.05299 2.13916,-2.68245 3.75158,-5.75342 5.44928,-8.7235 0.60432,-1.06176 1.19437,-1.67432 1.61283,-1.67432 0.41589,0 1.08209,-0.6842 1.80247,-1.85053 0.54021,-0.87463 1.04285,-1.47571 1.22266,-1.48363 0.0295,-0.001 0.0501,0.0134 0.061,0.045 0.0245,0.0718 0.0156,0.22283 -0.0243,0.44441 l 1.61283,-2.46083 3.21479,-12.75374 -1.03973,-4.01939 -3.58738,-0.70435 -0.66559,1.19527 0.23822,0.15038 v 1.69085 c 0,1.99668 -1.41252,7.09603 -2.63291,9.50433 -1.37834,2.72004 -5.79674,9.14423 -6.57583,9.56118 -1.28937,0.69006 -0.73273,-1.08159 -1.3565,-1.08159 -0.14382,0 -0.85774,0.89846 -1.58699,1.99678 -2.239248,3.37257 -6.38608,8.06076 -13.919043,15.73754 -3.967622,4.04336 -7.654959,7.66661 -8.194332,8.05067 l -0.979319,-0.11834 c 10e-4,-0.44937 0.637185,-3.19615 1.413868,-6.10402 3.157599,-11.82186 3.84603,-14.79419 3.506762,-15.13345 -1.171205,-2.05904 2.973277,-8.57924 4.088123,-10.45672 1.125016,-1.78213 1.130356,-2.51314 0.01602,-2.23346 -0.465043,0.11673 -0.95123,0.0369 -1.084171,-0.17828 -0.132495,-0.21437 1.212831,-3.3286 2.988965,-6.92103 2.950879,-5.96849 3.446832,-6.75064 5.753654,-9.06766 2.373292,-2.38377 3.369626,-3.24642 4.413684,-3.2458 0.247461,1.5e-4 0.497699,0.049 0.769459,0.13746 l 0.62219,-1.31568 z m 69.962133,105.82507 c -0.98308,2.0697 -0.32641,5.71361 -3.29178,5.86631 -1.22871,-0.0887 -3.26213,-1.58688 -3.23283,-1.85622 l -3.37189,-0.1602 c -0.24292,0.99455 -0.46699,1.75788 -0.58084,1.87172 -1.67815,0.35792 -3.43616,0.37865 -5.14956,0.48783 v -2.48615 -0.007 l -5.16041,-0.0682 c -1.01028,2.97065 -0.28847,4.85511 -4.09174,4.7103 -2.73179,-0.11974 -2.6128,0.1408 -1.86397,-4.06021 0.0143,-0.0804 0.0291,-0.16005 0.0439,-0.23875 l -3.25303,0.4067 c -0.30751,1.41147 -1.30423,5.03518 -2.71405,5.14335 -3.13396,0.2628 -4.13037,1.0304 -3.68608,-1.60404 l -5.85442,0.94517 c -0.0672,0.25283 -0.13931,0.52974 -0.21808,0.83354 -0.34525,1.33174 -0.58692,1.67503 -1.18132,1.67896 -0.41097,0.003 -1.58002,0.22516 -2.59777,0.4961 -1.82359,0.48546 -2.09843,1.03278 -1.50017,-3.23391 l -4.54598,-1.14825 -2.35954,1.42523 c 2.14452,1.43934 -0.46419,2.87097 -3.5016,2.30115 -1.66943,-0.31319 -3.81234,0.33302 -4.6054,1.38907 l -0.46974,1.99006 -8.253759,2.10839 -1.142049,8.90954 7.014868,3.09842 19.10447,-2.94598 28.55639,-4.41678 5.25446,3.57911 11.72694,-1.14205 2.0562,-5.78776 7.99538,-5.10202 4.56923,-11.87937 -3.48248,1.56579 c -2.83681,2.7547 -4.3662,-1.34489 -4.97804,-1.96072 -0.61184,-0.61583 -5.23531,-0.70909 -5.23531,-0.70909 z"
       sodipodi:nodetypes="ccccccccccccccssssssscccccccsscccsssssccccccssscssscccccccccssssssccsssscsssccccsccccccccsccsccscscccsccccccccccccczcc" /><path
       id="path335"
       style="display:inline;fill:#f1181e;stroke-width:0.83331"
       inkscape:label="05 vermelho claro"
       d="M 0,0 V 0.99993896 H 0.99993896 V 0 Z m 170.38547,19.551261 -11.6887,2.779676 -12.03182,6.053894 -6.1681,5.387785 1.05833,1.177189 c 0.0428,-1.04971 3.61619,-3.517415 10.18284,-7.022827 5.54781,-2.961547 9.99746,-4.77638 14.55622,-5.935555 1.83842,-0.467465 3.13399,-0.711665 3.96979,-0.735356 0.83581,-0.02369 1.21232,0.173756 1.21232,0.589111 0,0.353541 -1.46946,1.012077 -4.58214,2.054655 -2.52014,0.844118 -4.73895,1.687236 -4.93097,1.873271 -0.19201,0.186045 0.34265,0.094 1.18908,-0.204639 0.84643,-0.29864 2.09161,-0.543119 2.76675,-0.543119 1.14692,0 1.21241,0.06046 0.99684,0.919324 -0.3482,1.387359 -2.31631,4.132288 -3.92172,5.469433 -0.78524,0.654023 -2.76678,1.852027 -4.40335,2.66237 -1.63658,0.810334 -3.53054,1.558946 -4.20905,1.662948 -1.41245,0.216509 -2.46755,-0.392808 -2.46755,-1.42472 0,-0.726812 2.59202,-3.384848 5.46323,-5.602242 0.96928,-0.748579 1.92074,-1.498944 2.1146,-1.668115 0.49374,-0.430846 -3.94827,1.258372 -5.83892,2.220536 -0.8594,0.437337 -3.5705,2.041361 -6.02443,3.564641 -3.27017,2.029951 -4.81162,2.819726 -5.54024,2.713529 l 1.79679,1.998845 9.42217,7.196459 5.19865,3.06493 7.53649,3.989937 5.56245,2.223637 1.56424,0.690914 0.75706,-1.079004 1.78801,-10.539408 -0.24598,-8.117334 -1.3069,-11.404989 -0.69195,-3.082499 z m -29.50931,32.327226 c -2.32431,0.122002 -3.39639,0.377833 -5.28237,1.260388 -9.69452,4.536613 -12.42668,17.411599 -5.32267,25.084774 2.37837,2.56893 4.14897,3.789529 6.72569,4.636926 1.60097,0.526548 2.82726,0.650389 5.57692,0.563273 3.06223,-0.09702 3.83437,-0.254835 5.88698,-1.20406 5.71569,-2.643169 9.13235,-8.090754 9.14414,-14.581023 0.005,-3.202834 -0.45255,-5.087065 -1.90428,-7.825878 -1.88908,-3.563914 -5.94412,-6.585334 -10.31255,-7.685319 -0.8779,-0.221052 -2.90799,-0.333262 -4.51186,-0.249081 z m 0.36845,0.70435 c 1.6143,-0.08514 3.64537,0.03205 4.58163,0.264066 1.68199,0.41682 4.54984,2.031672 4.2106,2.370915 -0.0989,0.09891 -1.53264,-0.15931 -3.18637,-0.573608 -2.7128,-0.679615 -3.10486,-0.702186 -4.00906,-0.234611 -0.97037,0.501798 -4.56154,1.299523 -6.50761,1.445906 -0.52413,0.03943 -1.63417,0.517148 -2.46704,1.061434 -0.83286,0.544286 -2.26089,1.799164 -3.17293,2.788977 -1.96205,2.129408 -2.22332,1.52231 -0.45165,-1.050065 2.57003,-3.731561 6.36929,-5.828657 11.00243,-6.073014 z m 1.28509,4.727118 c 3.26009,0.0072 7.85147,3.621627 7.85147,5.556825 0,1.258624 -2.09073,8.337412 -4.05943,9.346636 -2.69651,1.382343 -10.72633,-0.113597 -13.24511,-1.763969 -1.02549,-0.671934 -1.28352,-4.002234 -0.75746,-6.275997 0.73233,-3.165291 6.59186,-6.871486 10.21053,-6.863495 z m 8.40734,18.507123 h 0.001 c 0.0573,-0.0022 0.0629,0.04721 0.006,0.154512 -0.56129,1.048773 -1.45708,1.757884 -3.73465,2.954859 -1.78812,0.939688 -2.39825,1.077901 -4.58267,1.036112 l -2.51974,-0.04806 2.11512,-0.269234 c 3.41903,-0.434507 5.57723,-1.275323 7.40368,-2.883028 0.66721,-0.587259 1.16098,-0.93632 1.31103,-0.945162 z m -46.59767,9.521382 -0.7183,0.05788 c -0.11778,0.364273 -1.00946,0.907778 -2.81482,1.489831 -5.425878,1.749331 -10.308682,5.113587 -16.298747,11.229806 -1.982894,2.024643 -4.644257,6.316713 -6.743257,10.874783 -0.828285,1.79868 -1.761525,3.82614 -2.074292,4.50464 -0.294253,0.63834 -0.47906,0.89619 -0.56379,0.85473 l -2.810681,7.18044 -0.484725,3.09645 3.500044,-0.40411 13.819829,-9.78028 8.499223,-2.98122 0.646472,-4.25348 4.274674,-16.585553 z m 18.83347,13.119096 -3.13211,2.526974 -1.37045,1.55133 -3.46491,4.96869 -4.96869,8.88111 -2.94452,5.39812 -1.25781,2.59157 -1.67069,3.44217 -0.17157,1.84692 -0.8661,2.3797 -1.36839,4.21369 1.14928,0.6997 3.07785,-2.69234 3.59307,-4.03645 4.75319,-7.78247 5.54592,-10.39264 2.34249,-5.59966 1.64228,-4.63073 0.32298,-2.746083 z m -0.74362,1.719274 c 0.0478,0.001 0.0873,0.0165 0.11731,0.0465 0.13319,0.13317 -0.0645,0.62149 -0.43925,1.08572 -1.70208,2.10859 -5.06755,6.56817 -6.46938,8.57312 -1.65788,2.37121 -1.97399,2.65025 -1.5968,1.40973 0.85384,-2.80812 7.21191,-11.14855 8.38812,-11.11508 z m 25.26357,8.03207 -8.86819,9.51776 -11.31765,10.96523 1.68982,8.62583 -0.34417,9.26558 -1.6061,7.46828 2.62723,1.4087 6.20634,-4.56923 8.75708,-8.68113 5.02605,-10.35647 2.55075,-10.47016 -1.29449,-11.38484 z m 1.95182,11.82873 c 0.001,-9e-5 0.002,0 0.003,0 0.0311,1e-5 0.0657,0.0284 0.10284,0.0868 0.45977,0.72492 0.0702,5.27085 -0.69867,8.15816 -0.77291,2.90226 -3.16967,7.89641 -5.24154,10.92181 -0.73784,1.07742 -1.93059,2.51459 -2.64996,3.19309 l -1.30793,1.23403 1.3379,-2.11511 c 0.7356,-1.16315 1.99428,-3.07648 2.79776,-4.25194 2.63371,-3.85301 5.43591,-12.07295 5.45962,-16.01504 0.005,-0.76504 0.0766,-1.19553 0.19378,-1.2113 0.001,-1.2e-4 0.002,-4.2e-4 0.003,-5.2e-4 z m -52.52444,2.71715 -6.197038,4.41575 -11.041703,13.32632 1.038696,2.1761 c 1.065638,-1.35119 2.109569,-2.49485 3.209624,-3.53622 1.633512,-1.54637 3.193065,-2.7311 3.594612,-2.7311 0.411672,0 1.117771,-0.55479 1.682585,-1.32189 0.53526,-0.72697 1.748503,-2.16127 2.695959,-3.1874 1.30931,-1.41804 1.675458,-2.05296 1.526522,-2.64635 -0.263523,-1.04998 -0.0065,-1.37432 2.133203,-2.68511 l 1.829863,-1.12086 1.476395,0.81029 c 0.812014,0.44587 1.999162,1.08367 2.637562,1.41748 0.63838,0.33379 1.26394,0.77415 1.3901,0.97824 l -0.0982,-0.61443 0.0796,-0.97824 z m 12.24111,8.0915 -0.46508,1.32963 c 0.62992,0 5.36577,2.98187 5.68595,3.58014 0.19113,0.35711 0.57956,0.64958 0.86352,0.64958 0.69166,0 0.72087,2.66626 0.032,2.93057 -0.26647,0.10218 -0.59437,0.92068 -0.72916,1.81953 -0.42179,2.81263 -1.89764,7.2333 -3.02824,9.07076 -0.5968,0.96992 -1.40591,2.57703 -1.79782,3.57136 -0.39194,0.99433 -1.54618,2.84153 -2.56522,4.10414 -2.39245,2.96428 -2.53611,3.26916 -2.81895,5.99653 l -0.23771,2.29082 1.44487,-2.1146 c 0.79457,-1.16315 1.92936,-3.06657 2.52181,-4.22972 1.2987,-2.54967 1.96307,-3.34863 2.78485,-3.34863 0.36792,0 1.08454,-0.75257 1.76268,-1.85053 0.6286,-1.01775 1.20622,-1.66528 1.28364,-1.43867 0.0322,0.0943 0.006,0.32548 -0.0713,0.67437 l 3.31969,-5.38158 1.84175,-11.91917 z m 30.5139,12.96096 h 5.2e-4 5.2e-4 5.1e-4 5.2e-4 l 5.2e-4,0.001 h 0.001 5.2e-4 l 5.1e-4,5.1e-4 5.2e-4,5.2e-4 v 0.001 l 10e-4,5.2e-4 v 5.2e-4 l 5.2e-4,5.1e-4 c 0.0131,0.0723 -0.60871,0.86658 -1.43299,1.82625 -0.8648,1.00685 -1.79721,1.8981 -2.07222,1.98076 -0.27501,0.0827 0.36668,-0.74144 1.42627,-1.8309 1.05961,-1.08947 1.99204,-1.98076 2.07222,-1.98076 z m -76.518324,93.47595 -26.043371,6.92981 -13.935584,8.52868 0.990121,6.47299 5.102014,4.79712 24.824841,-3.3507 39.064799,-11.27011 v -4.49275 l -23.758756,1.90376 z m -5.180045,3.88917 c 0.121308,0.003 0.20056,0.0187 0.232027,0.0501 0.07716,0.0772 -0.780817,0.46045 -1.906344,0.85162 -16.247117,5.64645 -25.484442,10.32976 -27.664978,14.0255 -0.839053,1.42209 -0.992187,1.48036 -0.992187,0.37466 0,-1.0253 1.673514,-3.38586 3.235461,-4.56251 4.028498,-3.03477 9.47976,-5.66761 17.019116,-8.22017 3.80556,-1.28845 8.90444,-2.54479 10.076905,-2.51923 z m 26.833504,7.03316 c 0.283593,0.007 0.113056,0.11785 -0.377755,0.31419 -3.645135,1.45848 -23.02416,5.29098 -31.017228,6.13451 -5.338188,0.56334 -9.307442,0.65187 -10.378695,0.22996 -0.367446,-0.14473 1.455506,-0.43164 4.229716,-0.66456 5.520673,-0.46351 13.977186,-1.7894 27.642758,-4.33513 6.454348,-1.20237 9.277296,-1.69353 9.901204,-1.67897 z"
       sodipodi:nodetypes="ccccccccccssssssssssssssssscccccccccccccssscsccsssssssssscsssssssscccccccsscccsssscccccccccccccccccccccccccccccsscsssscccccccccccccssccscccscsssccccssssscccsccccccsscsssscccssssccccccccccccccccccsssccccccccccccsccssssssccssssc" /><path
       id="path334"
       style="display:inline;fill:#575b69;stroke-width:0.83331"
       inkscape:label="04 cinza"
       d="M 0,0 V 0.99993896 H 0.99993896 V 0 Z m 98.195557,113.38739 -3.008085,3.00757 -0.609266,5.63532 9.785454,5.78724 3.90725,-8.05015 -8.278564,-5.88285 z m 1.031978,1.16531 c 0.534356,0 0.642047,0.32416 0.541569,1.6216 -0.03524,0.45465 0.305486,0.97835 0.882636,1.35651 0.80101,0.52486 0.91121,0.79416 0.74465,1.82056 -0.10755,0.66246 -0.51317,1.60872 -0.90175,2.10272 -0.38861,0.494 -0.618879,1.12512 -0.512112,1.40353 0.328682,0.85654 -0.675501,0.55276 -2.431893,-0.73588 l -1.668632,-1.22421 0.701249,-1.77974 c 1.169884,-2.96802 2.09515,-4.56509 2.644283,-4.56509 z m 14.926225,9.186 -4.79248,7.10758 2.01952,1.48053 7.80779,4.254 3.06906,-1.93838 3.55379,-5.76141 z m 9.61388,5.65392 c 0.0684,-0.002 0.12497,0.0222 0.17208,0.0693 0.11318,0.11325 -0.64434,1.24422 -1.6831,2.51302 -2.36813,2.89255 -3.4123,3.07423 -1.15497,0.20102 1.57233,-2.00133 2.29685,-2.77223 2.66599,-2.78329 z" /><path
       id="path333-0-0"
       style="display:inline;fill:#a5071e;stroke-width:0.83331"
       inkscape:label="03 vermelho escuro"
       d="M 0,0 V 0.99993896 H 0.99993896 V 0 Z m 172.23755,21.640023 -0.46664,2.910933 c -0.90632,5.659849 -4.5655,16.365951 -7.32152,21.421948 -1.28178,2.351459 -1.57,2.851703 -2.11821,2.773475 0.12358,0.199356 0.31825,0.356308 0.3917,0.576709 0.0538,0.161538 -0.13012,0.428655 0,0.538468 1.7786,1.501052 6.08149,3.191061 10.2309,4.630725 0.0959,0.03329 0.12122,0.177783 0.21549,0.215491 4.62191,1.649548 2.03848,-8.355221 2.36937,-11.092346 1.0168,-2.859322 2.55542,-10.441961 0.53847,-15.507581 -2.94399,-7.393915 -2.96415,-6.366966 -3.83956,-6.467822 z m 1.4211,20.164144 c 3.4e-4,-3e-6 0.001,-3e-5 0.003,0 h 5.2e-4 5.1e-4 c 4.6e-4,-2.1e-5 0.001,-4.9e-5 0.002,0 v 5.16e-4 h 5.2e-4 l 5.2e-4,5.17e-4 h 5.1e-4 l 5.2e-4,5.17e-4 h 5.2e-4 0.001 c 0.0347,0.0256 0.0491,0.254911 0.0605,0.666626 0.0301,1.087052 -0.49283,6.589644 -0.87902,9.252148 -0.1992,1.373317 -0.45921,1.763907 -0.88883,1.334286 -0.1861,-0.1861 0.89874,-8.084323 1.4056,-10.233484 0.16004,-0.678702 0.24487,-1.006391 0.293,-1.02061 z m -40.24871,12.828674 c -0.0968,0 -0.17673,0.07927 -0.17673,0.176217 0,0.09698 0.0798,0.175699 0.17673,0.175699 0.0968,0 0.1757,-0.07876 0.1757,-0.175699 0,-0.09698 -0.0788,-0.176217 -0.1757,-0.176217 z m -0.74414,0.434082 c -0.68464,0.01624 -3.63013,3.565014 -4.67155,5.697843 -3.10067,6.350123 -2.00795,13.04377 2.94349,18.033008 2.23939,2.256465 4.46372,3.533867 7.3918,4.245219 6.42634,1.561252 13.00675,-1.179649 16.77469,-6.987687 1.84805,-2.848658 2.57606,-5.807372 2.38125,-9.674345 -0.19352,-3.841323 -1.31577,-6.372693 -4.10725,-9.266101 -0.71396,-0.740045 -1.11113,-1.13266 -1.16013,-1.115694 l -5.2e-4,5.17e-4 c -0.0515,0.0434 0.57268,0.884156 1.95957,2.686141 1.85814,2.414283 2.88613,8.815766 1.9911,12.402343 -0.59166,2.370908 -3.33958,6.649879 -5.09013,7.926648 -3.27764,2.390623 -4.6993,2.88771 -8.68113,3.035991 l -3.70003,0.137976 -3.252,-1.633492 c -2.76559,-1.389089 -3.49297,-1.946548 -4.86533,-3.730005 -2.29008,-2.976136 -3.03988,-4.88326 -3.2427,-8.241358 -0.28997,-4.801133 1.03298,-8.563313 4.14083,-11.771374 0.81056,-0.836695 1.38858,-1.607108 1.28365,-1.71204 -0.0237,-0.02367 -0.0559,-0.03453 -0.0956,-0.03359 z m 9.55549,0.799434 c -3.14871,0 -3.73987,0.105516 -5.53919,0.989087 -2.25152,1.105641 -4.40948,3.337198 -5.63429,5.826518 -0.67934,1.380745 -0.80893,2.207213 -0.80976,5.168677 -8.2e-4,3.013025 0.11766,3.74707 0.817,5.057572 1.17723,2.206029 3.39225,4.474215 5.29167,5.419824 1.36956,0.68189 2.1299,0.807582 4.53977,0.750859 4.11498,-0.09688 6.33155,-0.833603 8.59069,-2.85564 1.02991,-0.921833 1.74992,-1.438013 1.60042,-1.147216 -0.14948,0.290785 0.13487,0.05292 0.63149,-0.52865 1.93901,-2.27077 2.77263,-6.897303 1.82831,-10.145634 -0.82343,-2.832505 -3.41854,-6.146622 -5.85598,-7.478097 -1.78553,-0.975412 -2.20894,-1.0573 -5.46013,-1.0573 z m -0.17725,2.497006 c 2.59148,-0.0084 4.33276,0.726036 6.27921,2.64635 0.93268,0.919973 1.12299,1.334017 0.94257,2.057238 -0.58581,2.348441 -3.80665,4.97486 -6.91999,5.64255 -0.95976,0.205829 -2.09466,0.361189 -2.52129,0.344682 -2.07381,-0.08015 -6.22004,-1.551681 -6.73912,-2.391585 -0.10585,-0.171324 0.0495,-1.126398 0.3452,-2.122351 1.08035,-3.637904 4.60276,-6.163784 8.61342,-6.176884 z m 9.34155,15.655375 c 0.0968,0 0.17674,0.07876 0.17674,0.1757 0,0.09699 -0.0798,0.176733 -0.17674,0.176733 -0.0969,0 -0.17622,-0.07979 -0.17622,-0.176733 0,-0.09697 0.0793,-0.1757 0.17622,-0.1757 z m -13.74593,4.229716 c 0.0969,0 0.1757,0.07876 0.1757,0.1757 0,0.09699 -0.0788,0.176733 -0.1757,0.176733 -0.0968,0 -0.17673,-0.0798 -0.17673,-0.176733 0,-0.09698 0.0798,-0.1757 0.17673,-0.1757 z m 0.88057,0.372587 c 0.0851,0 0.17047,0.03257 0.23512,0.09715 0.1293,0.129272 0.0234,0.234611 -0.23512,0.234611 -0.25843,0 -0.36443,-0.105446 -0.23513,-0.234611 0.0646,-0.06458 0.14996,-0.09715 0.23513,-0.09715 z m 1.23351,0.684713 c -0.0968,0 -0.17621,0.07876 -0.17621,0.175699 0,0.09698 0.0793,0.176217 0.17621,0.176217 0.0968,0 0.17674,-0.07928 0.17674,-0.176217 0,-0.09698 -0.0799,-0.175699 -0.17674,-0.175699 z m -35.74614,5.086511 c -0.13547,0.004 -0.31616,0.368541 -0.42835,0.609268 -0.15193,0.661771 0.41293,0.608565 -0.24392,1.234033 -0.72952,0.694637 -1.55411,2.88889 -3.0918,8.226371 -0.993267,3.447715 -2.100731,5.147041 -4.019906,6.169133 -1.003079,0.53421 -4.308165,3.17463 -8.122502,6.48849 -3.17231,2.75609 -8.522867,8.58821 -11.614795,12.66021 -1.229193,1.61882 -2.111048,2.63981 -2.628263,3.04684 -0.277284,1.59836 2.708186,-1.11319 3.383851,-1.5551 3.274805,-2.14184 8.426354,-5.48675 13.973746,-7.00975 0.138466,-0.038 0.391395,-0.13817 0.430465,0 3.379603,3.02429 4.968006,-0.50945 5.600175,-3.55431 -0.362021,-4.36962 5.614809,-20.968895 6.551539,-23.526205 0.742,-1.035598 0.64739,-2.259573 0.2098,-2.788977 z m 42.60606,25.349395 c -2.15712,2.19517 -4.42152,4.49362 -7.36738,7.5349 -3.49827,3.7793 -7.88999,7.46874 -11.73881,11.41533 0.53569,2.73712 1.80253,7.12596 0.32246,22.93813 -0.058,0.61943 0.22115,1.03746 0.64595,1.72341 2.31421,-3.22567 3.75262,-7.76255 5.36814,-11.48662 1.17595,-2.71736 3.66619,-11.06801 4.34444,-14.56707 0.37328,-1.92576 0.72664,-2.58108 2.58434,-4.79609 3.333,-3.97408 5.06105,-6.0559 5.9576,-7.37944 0.87869,-1.29718 2.71137,-2.37639 2.85319,-2.80185 -0.59693,-2.19532 -1.67007,-3.99818 -2.96993,-2.5807 z"
       sodipodi:nodetypes="cccccccscsssccsccscsccccccccssssccssssssssssssccsscccccsssssssssscssscscscccscsccssssssssssscscssssssscssssscssccccscccscsssscc" /><path
       id="path332"
       style="display:inline;fill:#11284d;stroke-width:0.83331"
       d="M 0,0 V 0.99993896 H 0.99993896 V 0 Z m 141.61254,56.239461 c -0.47517,0.02915 -0.95779,0.08794 -1.44745,0.176734 -2.92952,0.531223 -4.39973,1.361705 -6.52312,3.685046 -3.17836,3.477638 -3.9071,8.4944 -1.8433,12.686564 1.67222,3.396764 4.50581,5.555459 8.08168,6.157247 3.37253,0.567566 7.07798,-0.465263 9.50846,-2.650484 4.86854,-4.377224 5.24819,-11.507609 0.87179,-16.375228 -2.3663,-2.631901 -5.32186,-3.883923 -8.64806,-3.679879 z m 0.4315,2.124418 c 2.59147,-0.0083 4.33327,0.725523 6.27972,2.645834 0.93285,0.919976 1.12197,1.334522 0.94155,2.057755 -0.58581,2.348445 -3.80666,4.974345 -6.91999,5.642033 -0.95976,0.205831 -2.09415,0.360645 -2.52078,0.344165 -2.07381,-0.08014 -6.22004,-1.551161 -6.73912,-2.391068 -0.10588,-0.171314 0.0494,-1.126406 0.3452,-2.122351 1.08035,-3.63791 4.60276,-6.163528 8.61342,-6.176368 z"
       inkscape:label="02 azul escuro" /><path
       id="path331"
       style="display:inline;fill:#031129;stroke-width:0.83331"
       d="M 0,0 V 0.99993896 H 0.99993896 V 0 Z m 171.66136,17.691427 c -1.16432,-0.06253 -2.72106,0.179504 -4.94337,0.646472 -4.39094,0.922665 -6.00304,1.46112 -11.2789,3.766695 -22.04716,9.634744 -41.62992,30.720106 -50.88682,54.791488 -0.72049,1.873537 -1.50158,3.556685 -1.73529,3.74034 -0.23369,0.183657 -1.13836,0.430072 -2.01073,0.547253 -0.87235,0.117182 -3.109829,0.692696 -4.972306,1.278992 -7.551226,2.377082 -14.297172,8.375601 -19.242237,17.110067 -4.091706,7.227206 -7.290909,17.264456 -7.317899,22.960356 -0.01526,3.21815 0.40932,4.03569 2.571936,4.9506 1.901266,0.80436 3.290794,0.10408 7.18199,-3.61993 3.512273,-3.36137 7.907812,-6.2951 11.010181,-7.34839 3.089177,-1.0488 3.592073,-0.61329 2.449463,2.12132 -0.392654,0.9397 -0.496837,1.85718 -0.343132,3.01583 l 0.220659,1.66553 -1.655713,1.13895 c -4.185465,2.87967 -9.829456,9.25044 -11.450981,12.92583 -1.065437,2.41492 -1.346567,2.9011 -3.338814,5.77071 -0.989967,1.42591 -2.132013,3.24446 -2.53783,4.04161 -0.737343,1.44839 -0.739496,1.44951 -3.134692,1.62212 -2.896526,0.20874 -5.512865,1.42734 -7.421769,3.45612 -0.725579,0.77114 -1.526902,1.40217 -1.78077,1.4025 -0.253868,3.2e-4 -1.814098,-0.64461 -3.466972,-1.4335 -4.611129,-2.2008 -7.524138,-2.41603 -13.769185,-1.01648 -5.822252,1.30479 -11.381218,7.41096 -11.381218,12.50208 0,1.40901 -0.64309,2.63757 -1.381311,2.63757 -0.513042,0 -3.605489,3.34397 -4.237467,4.58215 -1.630093,3.19377 -1.738211,7.02011 -0.306441,10.84688 0.839799,2.24454 0.517225,2.89811 -1.431438,2.90111 -1.901162,0.003 -3.765173,0.61658 -4.981091,1.6397 -1.821251,1.53249 -1.886935,1.74488 -3.66696,11.92847 -1.340409,7.66855 -2.360693,13.54275 -3.551721,20.44319 -0.702666,4.07101 -1.583303,9.06719 -1.956986,11.10269 -0.373682,2.0355 -0.9995076,5.56458 -1.3906131,7.84241 -0.3911186,2.27783 -1.0282216,5.98136 -1.4159342,8.22999 -0.3877126,2.24863 -0.7045535,4.66767 -0.703833,5.37538 0.00178,1.7296 1.0380114,3.32149 2.6644373,4.09329 1.213835,0.576 1.621842,0.5945 4.359423,0.19637 1.661101,-0.24158 3.496206,-0.55482 4.077788,-0.69608 1.715244,-0.41666 1.938234,-0.16327 1.946134,2.2164 0.01721,4.83044 2.88173,8.03557 8.544698,9.56066 6.096792,1.64195 18.487665,-0.19797 38.325826,-5.69164 3.198655,-0.8858 6.84692,-1.89118 8.106999,-2.23397 1.260079,-0.34278 4.955279,-1.43728 8.211902,-2.4319 3.25661,-0.99462 6.072093,-1.7149 6.256465,-1.60093 0.184359,0.11393 0.336609,0.6338 0.337447,1.15548 0.006,2.90569 1.640581,5.06417 4.727361,6.24303 3.24499,1.23926 12.552824,0.17774 16.718874,-1.90686 0.84272,-0.42168 1.74691,-0.58596 2.62413,-0.47697 1.23055,0.15296 3.79244,-0.2197 10.29343,-1.4981 1.35701,-0.26686 4.52902,-0.82956 7.04918,-1.25006 2.52016,-0.42052 5.28107,-1.06744 6.13554,-1.43763 1.13754,-0.4928 1.98724,-0.61621 3.17242,-0.46044 1.02807,0.13513 3.00759,-0.0556 5.42551,-0.52348 5.23599,-1.01323 5.05448,-1.04388 5.27255,0.8909 0.24428,2.16723 1.50536,3.47077 3.34501,3.45767 0.72697,-0.005 3.54246,-0.3876 6.25647,-0.85008 4.71647,-0.80368 4.99139,-0.897 6.22391,-2.11201 1.0315,-1.01685 1.37634,-1.71171 1.72289,-3.47318 0.48602,-2.47034 0.57574,-2.54881 3.86074,-3.38274 5.89101,-1.49548 8.89682,-5.45026 10.44278,-13.73869 0.47351,-2.53865 1.08267,-5.80504 1.3534,-7.25899 0.35248,-1.89298 0.39839,-3.13845 0.16175,-4.3863 -0.18167,-0.95842 -0.21064,-1.86019 -0.0641,-2.00401 0.14655,-0.14383 1.61454,-0.59947 3.26234,-1.01286 3.08353,-0.51381 5.39457,-2.60249 8.05428,-4.02714 1.38721,-0.71487 4.22316,-3.82955 5.87017,-6.12296 1.19648,-1.66608 1.8564,-5.28062 1.22139,-7.20491 -0.5917,-1.79304 -1.79784,-1.84386 -0.57929,-3.32434 0.45103,-0.54798 1.08402,-1.67006 1.40663,-2.49339 0.92037,-2.34895 3.12994,-15.879 2.86391,-17.5364 -0.78987,-4.92075 -4.4401,-7.90995 -9.6728,-7.92045 -3.75978,-0.008 -11.49704,1.22261 -14.28285,2.27118 -3.39146,1.27655 -3.69279,1.22427 -3.69279,-0.64234 0,-2.19209 -0.62383,-3.69314 -1.78336,-4.29276 -1.26632,-0.65482 -1.69232,-0.65071 -6.93497,0.0724 -2.37185,0.32709 -4.42591,0.48179 -4.56407,0.34365 -0.13815,-0.13816 -0.27982,-1.31695 -0.31522,-2.61948 -0.1408,-5.1873 -3.02208,-9.49169 -8.14007,-12.16153 -3.73559,-1.94869 -7.06828,-2.35566 -11.05463,-1.34979 -1.64092,0.41405 -3.79163,1.14757 -4.77955,1.62987 -1.71373,0.83661 -5.46999,4.34713 -5.84047,5.45859 -0.13588,0.40832 -0.66812,0.50123 -2.3673,0.41703 -2.83421,-0.14046 -6.34034,0.98848 -8.15195,2.62516 -1.28123,1.15752 -2.46394,1.55509 -2.46394,0.82837 0,-0.58266 -3.19469,-2.44291 -5.19865,-3.0272 -1.01775,-0.29675 -1.85053,-0.62819 -1.85053,-0.73639 0,-0.38662 1.76444,-5.07878 2.29702,-6.10867 1.14521,-2.2146 2.63571,-9.21232 2.63653,-12.37858 l 0.001,-3.04942 1.16996,-0.6904 c 0.64351,-0.37967 1.63484,-1.42572 2.20296,-2.32492 1.9442,-3.07728 2.9714,-1.87864 2.9714,3.46697 0,2.82786 -0.19968,3.95878 -1.40973,7.98142 -0.77544,2.57783 -1.41025,5.21693 -1.41025,5.86425 0,2.51192 1.96124,4.31394 4.69428,4.31394 2.93205,0 11.52151,-7.43269 16.86461,-14.59342 3.59453,-4.81733 6.10474,-9.50997 7.56749,-14.14694 0.91531,-2.90135 0.99474,-3.60192 0.99374,-8.62118 -0.002,-5.28517 -0.0391,-5.56311 -1.13843,-8.51938 -0.62501,-1.68074 -1.13637,-3.38521 -1.13637,-3.78788 0,-0.40268 0.52987,-1.32765 1.17719,-2.05517 1.64126,-1.8446 6.07098,-8.031998 8.0822,-11.288717 5.17243,-8.375633 10.89208,-22.277964 13.2612,-32.234725 2.29015,-9.624825 2.94161,-15.015517 2.91611,-24.124626 -0.0267,-9.515053 -0.62122,-14.221153 -2.22519,-17.615979 -1.02582,-2.17113 -1.87629,-3.122462 -3.81682,-3.226676 z m -1.65985,3.104203 c 2.17076,0 2.50566,0.269317 2.85254,2.291333 0.13302,0.775436 0.57417,3.233863 0.9803,5.463232 1.00327,5.507265 1.10539,7.721233 0.65164,14.098365 -0.47728,6.70794 -1.12718,11.004359 -1.69344,11.193115 -0.62371,0.207903 -7.05451,-2.480984 -11.58844,-4.845182 -4.66978,-2.435042 -11.46639,-6.913835 -15.27968,-10.068637 -2.84682,-2.355246 -3.92377,-2.948808 -2.44275,-1.346687 4.44923,4.813009 21.14017,15.000378 27.70219,16.908012 2.26236,0.657686 2.27402,0.724808 0.98185,5.895247 -5.54203,22.175588 -13.61545,36.209659 -31.88281,55.421422 -4.58367,4.82065 -11.32739,11.14889 -13.04985,12.24628 -0.98891,0.63004 -1.01479,0.62537 -3.57808,-0.64699 -5.14697,-2.55482 -8.39554,-4.55627 -8.39638,-5.17332 -6.3e-4,-0.33194 1.13442,-2.6318 2.52232,-5.1108 3.46016,-6.18036 5.13174,-9.91572 6.1619,-13.77074 1.41588,-5.298376 0.75042,-6.852119 -1.81229,-4.231266 -0.49501,0.50625 -0.72428,0.756201 -0.70487,0.794784 1.6e-4,2.51e-4 8.5e-4,0.0013 0.001,0.0015 l 5.1e-4,5.17e-4 c 2.4e-4,1.88e-4 10e-4,8.66e-4 0.002,0.001 0.0307,0.01584 0.20544,-0.08861 0.51573,-0.294556 1.19014,-0.789905 2.12442,-0.743015 2.12442,0.106453 0,1.431828 -2.51632,8.279338 -4.38474,11.932088 -4.21672,8.24362 -11.6258,19.79307 -15.13913,23.59908 -1.2006,1.30062 -1.97662,1.47488 -1.97662,0.4439 0,-0.88209 2.49267,-7.59009 3.86488,-10.40091 0.56784,-1.16315 2.39954,-4.97 4.07055,-8.45944 3.3418,-6.97849 4.92839,-9.64406 8.02432,-13.48186 1.99569,-2.47392 2.36863,-3.555419 0.54673,-1.58595 -2.34366,2.53347 -4.75837,6.31785 -8.37675,13.12943 -1.2647,2.38079 -2.16138,3.68723 -2.51406,3.66283 -0.72088,-0.0498 -9.779837,-5.82948 -9.995768,-6.37739 -0.261243,-0.66287 1.128377,-8.31751 2.322338,-12.794057 1.64162,-6.155033 4.71417,-15.430318 7.06469,-21.324797 5.3486,-13.412776 13.19916,-25.443246 22.70249,-34.790641 4.21988,-4.150624 9.19122,-8.386568 9.84229,-8.386568 0.22913,0 0.98833,-0.53923 1.68723,-1.198377 5.24697,-4.948531 22.62596,-12.900504 28.19415,-12.900504 z m -27.96263,35.472253 c -1.86883,-0.0032 -3.73131,0.394028 -5.29581,1.192176 -2.10241,1.072563 -4.83022,4.334334 -5.47253,6.543786 -0.85728,2.948962 -0.75065,6.06501 0.28474,8.326624 1.58334,3.458475 3.53704,5.097912 7.31738,6.138643 2.77611,0.764267 5.92191,0.393321 8.65374,-1.020093 1.42763,-0.738644 3.79471,-3.34126 4.77076,-5.245674 1.16895,-2.280821 1.3132,-5.894132 0.33797,-8.477519 -0.87224,-2.31054 -3.39152,-5.30108 -5.26325,-6.247681 -1.58889,-0.803562 -3.46418,-1.207053 -5.333,-1.210262 z m 0.55397,1.583366 c 0.97407,-0.01585 1.60536,0.222934 3.1228,0.969967 1.24362,0.612231 2.75047,1.670527 3.34864,2.351794 0.93119,1.060568 1.08779,1.515152 1.08779,3.163631 0,1.70775 -0.14061,2.08113 -1.24231,3.300574 -0.68312,0.756134 -1.65906,1.479188 -2.16886,1.607137 -1.41653,0.35553 -3.99097,2.264 -3.99097,2.958476 0,0.339631 0.19848,0.818337 0.4408,1.064018 0.35309,0.357992 0.30805,0.544444 -0.22634,0.93896 -0.36674,0.270745 -0.8411,0.550121 -1.0542,0.621151 -0.23956,0.07986 -0.15714,0.359625 0.21601,0.732772 0.56967,0.56967 0.71742,0.551672 2.64015,-0.323494 1.12029,-0.509915 2.49227,-1.388821 3.04839,-1.95337 0.55611,-0.56455 1.2298,-1.02681 1.49758,-1.02681 1.17975,0 0.0458,1.602451 -2.40967,3.40496 -1.75769,1.290298 -1.97558,1.355457 -4.67258,1.394747 -3.14435,0.04581 -3.93574,-0.150529 -4.88963,-1.211296 -0.73036,-0.81219 -0.52062,-1.473295 0.46716,-1.473295 1.20099,0 1.76992,-0.419256 1.76992,-1.303796 0,-0.481791 0.31767,-1.279601 0.70538,-1.772502 1.01729,-1.293273 0.89236,-1.505851 -0.8816,-1.505851 -1.42918,0 -1.58595,0.08163 -1.58595,0.826823 0,1.468077 -1.01874,3.05046 -1.96422,3.05046 -1.21029,0 -2.139,-1.076848 -2.77451,-3.216858 -0.99154,-3.338844 -0.518,-6.347754 1.41077,-8.964828 1.11329,-1.510611 4.55174,-3.257486 6.97167,-3.541903 0.44639,-0.05246 0.80908,-0.08618 1.13378,-0.09147 z m -40.1035,26.701213 c 0.37838,-0.01795 0.73029,-0.01638 1.04852,0.0072 0.58609,0.04348 0.55776,1.095672 -0.0631,2.357996 -1.23944,2.520297 -5.573271,17.963792 -6.036323,21.509802 -0.129678,0.99293 -0.357964,2.00291 -0.507463,2.24482 -0.149512,0.24191 -1.527339,0.64107 -3.061828,0.88677 -3.595184,0.57565 -7.482257,2.20743 -11.427727,4.79816 -1.730035,1.136 -4.470971,3.33782 -6.090584,4.89272 -2.462465,2.36407 -3.013716,2.74397 -3.366203,2.31924 -0.317688,-0.3829 -0.328746,-1.03444 -0.04599,-2.64738 0.206288,-1.17677 0.548533,-3.13128 0.760677,-4.34289 0.9124,-5.21128 4.482589,-13.80397 7.749915,-18.652095 3.222327,-4.781347 7.183538,-8.436993 11.576038,-10.683585 2.863861,-1.46475 6.815377,-2.565129 9.464018,-2.690792 z m 45.29181,24.760758 c 0.55999,0.008 1.71271,3.11604 2.42983,6.59443 0.8972,4.35188 0.67062,9.03115 -0.64027,13.22607 -2.44038,7.80935 -8.64031,16.1758 -16.72301,22.5671 -4.22669,3.34221 -5.21119,3.11373 -3.71502,-0.86197 0.47053,-1.25033 1.13172,-3.9248 1.46916,-5.9433 0.81086,-4.85048 0.56724,-8.6479 -0.83509,-13.00799 l -1.05627,-3.28456 2.52336,-2.35489 c 6.24604,-5.82907 8.68103,-8.28452 12.30054,-12.4008 2.13078,-2.42323 4.01853,-4.4596 4.19458,-4.5253 0.0168,-0.006 0.0341,-0.009 0.0522,-0.009 z m -48.713822,4.61419 c 0.420371,-0.01 0.888115,0.31056 1.511532,0.89762 0.60953,0.57399 2.41696,1.87295 4.0163,2.88665 1.59933,1.0137 2.90783,1.99267 2.90783,2.17558 0,0.18292 -0.31674,0.95381 -0.70383,1.71255 -0.38708,0.75875 -1.03278,2.25899 -1.43506,3.33417 -0.49712,1.32868 -0.92088,1.94846 -1.32292,1.93476 -0.602,-0.0205 -4.02432,-2.05472 -6.92102,-4.11396 -1.964553,-1.39659 -1.981462,-1.7733 -0.257349,-5.7304 0.935377,-2.14684 1.503898,-3.08069 2.204517,-3.09697 z m 15.406812,10.7208 1.62161,0.6196 c 0.89192,0.34062 1.69013,0.7296 1.77353,0.86454 0.0834,0.13495 -0.3889,1.35152 -1.04903,2.70371 -0.66014,1.35218 -1.20209,2.6351 -1.20509,2.85048 -0.003,0.21539 0.71342,0.77039 1.59163,1.23351 l 1.5968,0.84181 1.20871,-1.40973 c 0.66495,-0.77543 1.4516,-1.90661 1.74822,-2.51354 0.54196,-1.10892 1.59853,-1.65484 2.51871,-1.30173 0.86447,0.33173 0.53823,1.43007 -0.94362,3.17706 -0.79107,0.93261 -1.80778,2.13185 -2.25929,2.66496 -1.02028,1.20471 -1.48815,1.21023 -3.21427,0.0388 -0.75402,-0.51173 -2.16386,-1.20613 -3.13315,-1.54306 -2.75703,-0.95831 -4.40593,-1.84347 -4.40593,-2.36523 0,-0.41987 1.25664,-2.23344 3.46801,-5.00487 z m -16.634644,0.0212 1.790072,1.28571 c 0.984352,0.70719 1.928902,1.28629 2.099612,1.28726 0.17071,9.6e-4 0.74205,0.35802 1.26917,0.79324 l 0.95809,0.79116 -1.22267,3.51865 c -1.43405,4.12627 -1.58288,5.82187 -0.5116,5.82187 0.7631,0 3.25847,-2.40803 5.02192,-4.84622 0.67747,-0.93668 1.35841,-1.49777 1.81694,-1.49707 0.40331,6.3e-4 1.6616,0.61817 2.79622,1.37253 1.13461,0.75437 2.68405,1.65216 3.44371,1.99471 0.92789,0.41842 1.45648,0.92213 1.61024,1.53479 0.36233,1.44366 -0.52085,7.29582 -1.51515,10.0397 -1.29967,3.58658 -1.38689,4.0907 -0.70849,4.0907 0.88481,0 0.70253,1.35358 -0.66404,4.93459 -0.67849,1.77798 -1.23465,3.41697 -1.23765,3.64267 -0.002,0.22569 -0.55393,1.66958 -1.22576,3.20859 -0.67186,1.53899 -1.18392,2.83599 -1.13792,2.88199 0.046,0.046 1.01763,-0.23202 2.15956,-0.61753 4.56465,-1.54101 8.92989,0.8997 10.17405,5.68803 l 0.50385,1.93838 0.65939,-1.40974 c 1.50679,-3.22187 2.52755,-4.32302 5.25911,-5.67303 2.72639,-1.34747 3.44781,-1.41527 7.06055,-0.66146 0.96413,0.20117 1.12478,0.10088 1.67018,-1.04283 1.03405,-2.16843 3.2784,-4.25645 6.13141,-5.70456 2.51921,-1.27862 2.8996,-1.36919 5.72679,-1.36219 4.50992,0.0105 6.7091,0.79732 9.20615,3.29437 2.47246,2.47244 3.53652,4.4805 3.77652,7.12721 0.27048,2.9829 0.004,3.65506 -1.64486,4.1491 -2.0139,0.60338 -3.38801,2.42664 -3.90881,5.18677 -0.39227,2.07895 -0.50301,2.26125 -1.59474,2.62154 -0.84957,0.28092 -1.75786,0.28201 -3.29023,0.004 -2.68746,-0.48732 -10.18353,0.5402 -14.14333,1.93889 -2.75927,0.97466 -3.04975,1.01015 -5.63945,0.68213 -1.02207,-0.12945 -3.90511,0.19499 -8.10699,0.91261 -3.58637,0.61248 -7.07554,1.17787 -7.75405,1.25677 -0.67851,0.0789 -2.81978,0.37428 -4.75837,0.65629 -1.93858,0.28199 -5.26916,0.76369 -7.40161,1.07022 -3.84659,0.55292 -8.586904,1.27533 -12.729976,1.94045 -1.1855,0.19032 -2.810728,0.34623 -3.612183,0.34623 -2.277071,0 -7.816008,1.04341 -9.532235,1.79576 -0.854589,0.37464 -2.386468,1.39271 -3.404443,2.26239 v -5.1e-4 c -1.017975,0.86969 -1.984203,1.57641 -2.147156,1.56941 -0.16294,-0.006 -0.671944,-0.32438 -1.131197,-0.70693 -1.28717,-1.07222 -4.37296,-1.83318 -6.673494,-1.64538 -1.104528,0.0902 -3.623958,0.44212 -5.598625,0.78186 -4.158805,0.71553 -4.831979,0.59811 -4.559928,-0.79633 1.295542,-6.64041 1.38263,-7.44108 0.929142,-8.53591 -0.532051,-1.28446 -1.954755,-2.12649 -3.593062,-2.12649 -1.04593,0 -7.52435,0.95937 -15.445052,2.28772 -5.976742,1.00233 -5.464617,1.01704 -6.478675,-0.18811 -1.225337,-1.45621 -2.102953,-4.57832 -1.894975,-6.74274 0.09094,-0.94646 0.629322,-2.62896 1.19631,-3.73827 0.920392,-1.80068 1.284844,-2.14609 3.399276,-3.22358 l 2.36833,-1.20664 v -1.81333 c 0,-2.9435 0.863459,-5.19708 2.806031,-7.32255 2.110777,-2.30954 5.654673,-4.07261 9.025805,-4.49068 2.592117,-0.32147 6.432288,0.0673 8.272364,0.83768 1.354165,0.56691 5.155466,3.26617 5.92987,4.21059 0.427196,0.52098 0.609343,0.31598 1.651579,-1.8588 2.062517,-4.30375 6.217775,-6.25392 10.128581,-4.7532 0.35157,0.13491 0.855627,-0.40637 1.591634,-1.71049 1.696459,-3.00597 6.444688,-10.11669 6.75566,-10.11669 0.154765,0 0.974413,-1.06924 1.821077,-2.37609 3.292465,-5.082 8.885394,-10.77693 12.382707,-12.60801 z m 71.278334,41.0161 c -0.52167,-0.0136 -1.0466,0.13378 -1.16633,0.32763 -0.26008,0.42079 0.43049,0.42079 1.40973,0 0.62945,-0.2704 0.60353,-0.30553 -0.2434,-0.32763 z m 2.24741,8.4708 c 0.11726,6e-5 0.21421,0.005 0.28732,0.0155 0.75495,0.10654 0.8771,0.30118 0.8537,1.35805 -0.015,0.6785 -0.15229,2.04912 -0.30489,3.04633 l -0.27751,1.81333 2.33164,-0.18707 c 2.14952,-0.17254 2.33164,-0.13298 2.33164,0.50849 0,1.42129 -1.05232,7.64314 -1.34152,7.93234 -0.1649,0.16492 -1.31816,0.46329 -2.56315,0.663 -1.24499,0.1997 -2.3643,0.47254 -2.48718,0.60669 -0.12291,0.13415 -0.64836,2.62357 -1.16789,5.53144 -0.51951,2.90787 -1.17269,6.49213 -1.45108,7.96541 -0.76288,4.03701 -1.07856,3.76424 3.40703,2.94194 0.9852,-0.18061 1.31837,-0.10619 1.48622,0.33124 0.30994,0.80768 -1.34099,7.99296 -1.91927,8.3535 -0.26632,0.16605 -1.59424,0.56619 -2.95124,0.88935 -3.49992,0.83349 -8.20659,1.00154 -9.38237,0.33486 -2.15912,-1.22425 -2.53313,-4.14893 -1.35496,-10.5947 0.52628,-2.87936 2.44258,-13.91158 2.45308,-14.12627 7.6e-4,-0.0148 -0.47278,0.0426 -1.05213,0.12764 -1.49939,0.22007 -1.61909,-0.43337 -0.84439,-4.61367 0.70923,-3.82694 1.28531,-4.8271 2.77916,-4.8271 0.48464,0 0.88134,-0.0399 0.8816,-0.0884 0.007,-1.26165 1.19114,-6.18229 1.55184,-6.44819 0.59653,-0.4397 6.97544,-1.53466 8.73435,-1.53376 z m 25.65425,2.55179 c 1.90557,0.11586 3.08912,0.61476 3.94033,1.52083 0.63942,0.68062 0.83593,1.36077 0.94361,3.26751 0.20108,3.55861 -1.69978,13.72506 -2.81998,15.08228 -0.84945,1.02917 -3.22214,1.79274 -8.57364,2.759 -3.44497,0.62201 -5.44075,1.14675 -5.72782,1.50585 -0.24233,0.30311 -0.4408,1.15506 -0.4408,1.89343 0,1.08197 0.12972,1.34255 0.66715,1.34255 1.51899,0 8.12736,-1.52428 10.20454,-2.35386 2.89769,-1.15727 3.16122,-0.91293 2.37815,2.20452 -0.81393,3.24024 -1.32934,4.10869 -3.28197,5.52938 -3.28687,2.39144 -5.72725,3.26193 -11.15281,3.97753 -2.13455,0.28152 -4.12866,0.49758 -4.43177,0.48008 -4.07953,-0.23531 -6.07356,-4.0062 -4.95473,-9.36998 0.19516,-0.93562 0.97335,-5.19087 1.72961,-9.45575 0.75625,-4.26488 1.72831,-8.69283 2.16007,-9.84023 1.57781,-4.19305 5.28973,-6.79276 11.0877,-7.7649 3.73925,-0.62695 6.36678,-0.89411 8.27236,-0.77824 z m -46.62868,6.62337 c 1.21745,0.0135 1.98296,0.25976 2.94659,0.74569 2.21858,1.11877 3.28087,3.2245 2.97811,5.90351 -0.39797,3.52172 -2.33337,12.85175 -2.82515,13.61881 -0.59915,0.93455 -3.88348,1.96611 -9.80095,3.07888 -2.3979,0.45092 -4.5216,0.9197 -4.71909,1.0418 -0.46221,0.28562 -0.84417,2.18469 -0.57878,2.87631 0.12286,0.32016 0.6461,0.53165 1.31207,0.52865 1.19256,-0.004 6.8668,-1.28441 10.21539,-2.30477 2.62982,-0.80135 2.79147,-0.55959 2.00092,2.9869 -0.74874,3.35887 -0.86147,3.56088 -2.82567,5.05705 -2.52843,1.92597 -3.67679,2.37469 -8.39225,3.28042 -7.48372,1.43748 -10.61209,1.07652 -12.24318,-1.41283 -1.41677,-2.16226 -1.34571,-3.40367 0.88676,-15.53342 0.39246,-2.13243 0.87064,-4.83844 1.06299,-6.01359 0.74381,-4.54432 2.1454,-7.60338 4.38836,-9.57771 2.09435,-1.84352 4.65605,-2.77809 9.93583,-3.6251 2.77153,-0.44465 4.4406,-0.66406 5.65805,-0.6506 z m -100.288969,2.30166 c 0.228955,0.0134 0.372681,0.0487 0.429948,0.10594 0.631572,0.63156 -1.405908,11.47834 -2.254642,12.00289 -0.212851,0.13154 -1.76463,0.44261 -3.448369,0.69143 -4.744331,0.70115 -10.713252,1.72568 -10.849467,1.8619 -0.146408,0.14641 -1.413782,6.78343 -1.746146,9.14363 l -0.233578,1.65778 1.35909,-0.19224 c 0.747666,-0.10596 2.979598,-0.49284 4.959388,-0.85938 1.979789,-0.3665 3.843307,-0.57273 4.141349,-0.45837 0.329076,0.12628 0.541569,0.64468 0.541569,1.31982 0,1.73148 -1.758527,9.86366 -2.239657,10.35699 -0.33894,0.34752 -9.422702,2.20193 -10.785905,2.20193 -0.361316,0 -0.710525,1.57989 -1.947168,8.81186 -2.034718,11.89918 -2.381167,13.4323 -3.151745,13.93404 -0.402673,0.26217 -2.976556,0.88245 -5.719548,1.37821 -2.743005,0.49577 -5.232113,0.90124 -5.530928,0.90124 -1.362522,0 -1.335226,-0.23985 2.070674,-18.3286 1.189495,-6.31738 2.458493,-13.41956 4.754232,-26.6113 1.290484,-7.41541 2.443268,-13.31859 2.639115,-13.51442 0.206773,-0.20679 8.391936,-1.62567 22.709725,-3.93722 2.164338,-0.34944 3.615201,-0.50634 4.302063,-0.46613 z m 141.112839,0.64699 -1.58647,0.11834 c -1.93706,0.14498 -2.68095,0.76064 -2.97295,2.4598 -0.12276,0.71428 -0.31078,1.73883 -0.41754,2.27686 v 5.2e-4 c -0.19365,0.97563 -0.19012,0.97759 1.33377,0.73639 2.90425,-0.45967 3.23979,-0.63507 3.55689,-1.8588 0.16535,-0.63791 0.25227,-1.73871 0.19327,-2.44636 z m -61.84584,0.38964 c 0.099,0.004 0.17168,0.0146 0.21445,0.031 0.42051,0.16136 0.50787,0.52366 0.35761,1.4826 -0.25232,1.61049 -2.47363,14.05381 -3.21531,18.0113 -0.30881,1.6478 -0.80624,4.34409 -1.10536,5.99188 -0.56812,3.12981 -1.50912,5.66513 -2.5337,6.82594 -0.33185,0.37596 -1.5148,1.35991 -2.62878,2.18643 -2.79663,2.07493 -6.61045,2.85245 -6.61045,1.34772 0,-0.68499 -0.22514,-0.62355 -1.62057,0.4408 -0.67179,0.5124 -2.28357,1.226 -3.58169,1.58595 -4.08505,1.13276 -6.91262,0.70934 -8.4677,-1.26762 -1.323295,-1.68221 -1.313387,-3.44002 0.0615,-11.00915 0.69763,-3.84076 1.83895,-10.15557 2.53628,-14.03273 0.69736,-3.87715 1.45608,-7.24642 1.6862,-7.4874 0.62472,-0.6542 9.33388,-2.04633 9.81181,-1.56838 0.27247,0.27247 0.16687,1.46252 -0.37207,4.18941 -0.41404,2.09492 -1.2383,6.66393 -1.83141,10.15338 -0.59311,3.48944 -1.22495,6.97913 -1.40405,7.75457 -0.1791,0.77542 -0.32935,1.86584 -0.33435,2.42362 -0.009,1.00762 0.003,1.01339 1.78335,0.84233 1.12123,-0.10774 2.02863,-0.42159 2.42518,-0.83819 0.46707,-0.49072 1.11403,-3.35275 2.46083,-10.88719 2.59978,-14.54385 2.53605,-14.22975 2.97863,-14.59705 0.52289,-0.43397 7.90491,-1.64585 9.38961,-1.57923 z m -29.29589,4.4788 c 1.31649,-0.0287 1.49974,0.33849 1.31155,1.21595 -0.19111,0.89105 -3.150255,17.0649 -4.851901,26.51879 -2.289281,12.71859 -2.452016,13.30212 -4.503084,16.11788 -1.957125,2.68679 -4.457233,3.58411 -15.015104,5.38933 -3.489439,0.59663 -6.66147,1.1473 -7.049183,1.2237 -1.095777,0.21574 -1.586466,-0.14739 -1.586466,-1.17409 0,-1.1548 1.605289,-7.08919 2.033468,-7.51737 0.170262,-0.17026 1.620443,-0.4591 3.222542,-0.64182 4.191097,-0.478 8.896779,-1.42811 9.781315,-1.97507 0.48903,-0.30239 0.890071,-1.07371 1.120345,-2.15336 0.197293,-0.92513 0.321799,-1.71945 0.276469,-1.76475 -0.04535,-0.0454 -0.718728,0.23271 -1.49655,0.61754 -1.632936,0.80792 -5.68928,1.73197 -7.640877,1.74097 -2.466631,0.0113 -4.590463,-1.71181 -5.035868,-4.08605 -0.221289,-1.17958 0.651294,-7.48208 1.970939,-14.23634 0.359822,-1.84166 0.758525,-4.1415 0.886251,-5.1108 0.654223,-4.96384 2.764399,-8.91144 5.674589,-10.61692 2.684905,-1.57351 8.207503,-2.36166 10.629842,-1.51722 0.909138,0.31693 1.190428,0.27201 1.738395,-0.27596 0.46072,-0.46073 1.869867,-0.8445 4.775419,-1.30017 1.769967,-0.27759 2.96802,-0.43702 3.757909,-0.45424 z m 44.87426,1.76733 c -0.21418,-2.4e-4 -0.47412,0.0376 -0.78444,0.10439 -2.74522,0.59064 -3.20209,1.15588 -3.73879,4.62711 l -0.23151,1.4981 1.19062,-0.21911 c 4.01638,-0.73951 3.60767,-0.43228 4.13102,-3.10265 0.42905,-2.18933 0.36124,-2.90676 -0.5669,-2.90784 z m -78.104272,3.09387 c 0.752939,0.0494 1.196639,0.24766 2.006596,0.63976 3.517893,1.70299 3.744291,4.21491 1.48053,16.41811 -2.635047,14.20476 -2.783634,14.69663 -5.344377,17.69402 -2.570227,3.00849 -5.687486,4.27888 -12.797668,5.21466 -5.165279,0.67981 -5.221539,0.67775 -7.082772,-0.26251 -2.311158,-1.16757 -3.162746,-2.65707 -3.154846,-5.51543 0.01104,-3.8349 3.084411,-20.84019 4.461226,-24.68531 2.100429,-5.86602 6.324703,-8.22432 16.568498,-9.24853 2.04753,-0.20472 3.109875,-0.30414 3.862813,-0.25477 z m 21.246766,5.96863 c -0.732896,-0.0323 -1.773323,0.1402 -2.60656,0.48834 -1.353601,0.56558 -1.61238,1.23843 -2.313554,6.01876 -0.227484,1.55087 -0.704011,4.32202 -1.059366,6.15828 -0.457838,2.36576 -0.538304,3.46908 -0.275436,3.78581 0.59294,0.71445 3.952726,-0.23492 4.489649,-1.26866 0.162403,-0.31266 0.643535,-2.55114 1.069185,-4.97437 0.425651,-2.42323 0.995208,-5.57997 1.265556,-7.01456 0.270266,-1.4346 0.40823,-2.74311 0.306441,-2.90783 -0.10728,-0.17358 -0.436178,-0.26639 -0.875915,-0.28577 z m -28.703675,4.58215 c -1.127141,0.0562 -2.574575,0.44248 -2.989998,0.9555 -0.325526,0.402 -0.918696,2.66577 -1.37356,5.24412 -0.440244,2.49532 -1.104665,6.07459 -1.476395,7.95352 -0.83182,4.20435 -0.838464,4.77596 -0.05891,4.96197 0.766792,0.18296 2.522488,-0.0876 3.36517,-0.51883 0.839642,-0.42963 1.101355,-1.20663 1.815393,-5.39244 0.330701,-1.93859 0.994976,-5.54627 1.476395,-8.01759 0.481444,-2.47131 0.765795,-4.67057 0.632003,-4.88705 -0.152992,-0.24755 -0.713811,-0.3329 -1.390096,-0.2992 z M 175.47146,221.1891 c 2.39231,-0.0134 2.64704,0.0577 3.42046,0.95602 1.28671,1.49447 1.41864,3.08569 0.56328,6.8094 -0.41423,1.8033 -0.75345,3.67691 -0.75345,4.16357 0,0.48667 -0.40415,2.1647 -0.89813,3.72846 -1.15347,3.65138 -2.41105,4.97932 -5.70715,6.0265 -1.31047,0.41633 -3.29553,0.757 -4.41161,0.75706 -1.78696,9e-5 -2.04994,0.0902 -2.20039,0.75603 -0.68571,3.0351 -0.86618,4.05832 -0.87798,4.98574 -0.0218,1.64532 -0.45469,2.00057 -3.04994,2.50269 -1.3292,0.25716 -2.85273,0.47259 -3.38584,0.48059 -0.8649,0.0115 -0.96745,-0.11052 -0.95085,-1.13275 0.0244,-1.49787 1.07852,-7.54689 2.65669,-15.24455 0.27821,-1.357 0.50426,-2.92334 0.50126,-3.48092 -0.002,-0.55757 0.32065,-2.461 0.71778,-4.22972 0.39713,-1.76872 0.79412,-3.56202 0.88212,-3.98528 0.088,-0.42326 0.4533,-0.86272 0.81235,-0.97669 1.46674,-0.4655 5.53164,-0.7951 5.92677,-0.48059 0.27086,0.21561 1.05812,-0.007 2.29082,-0.64647 1.53899,-0.79876 2.34568,-0.97729 4.46381,-0.98909 z m -47.42863,1.57148 c 1.14557,0 1.20762,0.52105 0.43977,3.70107 -0.28084,1.16314 -0.51597,2.46274 -0.52297,2.8882 l -0.0134,0.77359 2.02054,-0.92501 c 2.78262,-1.27392 6.38864,-1.35434 7.57267,-0.16898 0.71639,0.7171 0.79998,1.12381 0.76068,3.70107 -0.0245,1.60482 -0.36438,4.15197 -0.76223,5.71489 -0.39479,1.55087 -0.88693,4.08859 -1.09348,5.63945 -0.20655,1.55087 -0.54141,3.4025 -0.74465,4.11448 -0.36665,1.28455 -0.3946,1.30021 -3.5817,2.04845 -2.19283,0.51483 -3.32632,0.63934 -3.5729,0.39275 -0.24658,-0.2466 -0.11401,-1.73533 0.41806,-4.69222 0.42863,-2.38198 1.01687,-5.66412 1.30689,-7.29362 0.59817,-3.3608 0.43924,-3.75793 -1.36787,-3.41891 -1.94286,0.36448 -2.29412,1.0726 -3.2675,6.58875 -1.364,7.72981 -1.61965,9.00362 -1.90066,9.45833 -0.14242,0.23043 -1.35467,0.64796 -2.69338,0.92811 -2.672,0.55902 -3.77952,0.63261 -4.13773,0.2744 -0.38346,-0.38346 -0.26892,-2.04707 0.24185,-3.50986 0.26235,-0.75135 0.67525,-2.71422 0.91725,-4.36201 0.24199,-1.64779 0.74032,-4.74052 1.10743,-6.87296 0.36711,-2.13244 0.98953,-5.89798 1.38338,-8.36745 0.39387,-2.46948 0.79817,-4.70372 0.89865,-4.96559 0.18578,-0.48416 4.83922,-1.64693 6.59133,-1.64693 z m 26.82679,1.80661 c 0.90629,-0.0161 1.43194,0.16465 2.20555,0.53175 1.57444,0.74713 2.35425,2.25562 2.13837,4.13825 -0.16283,1.42024 -1.2249,7.05039 -2.01228,10.66808 -0.97819,4.49435 -4.34687,6.98727 -10.65413,7.88376 -1.40978,0.20038 -2.96011,0.41971 -3.44475,0.48731 -1.39897,0.19522 -3.06603,-0.4206 -3.85507,-1.42369 -0.80051,-1.0177 -0.94734,-3.14533 -0.3855,-5.58725 0.17841,-0.77542 0.49328,-2.77427 0.6997,-4.44159 0.57216,-4.62157 1.24863,-6.50276 2.94762,-8.1995 1.97269,-1.9701 3.38793,-2.58251 7.87291,-3.40651 2.29442,-0.42157 3.58128,-0.63452 4.48758,-0.65061 z m -41.21506,1.3901 c 1.36607,-0.0231 2.53691,0.0917 3.45354,0.34623 1.132,0.31436 1.32136,0.51137 1.32136,1.37098 0,0.55204 -0.3249,2.05552 -0.72192,3.34088 l -0.7214,2.3368 -3.9486,-0.0966 c -4.4583,-0.10949 -5.8144,0.30047 -6.38824,1.93218 -0.50014,1.42214 0.004,1.71169 3.91914,2.25154 5.59288,0.77126 6.45592,1.84269 5.76399,7.15461 -0.54225,4.16268 -0.97222,5.22267 -2.90111,7.15046 -1.8744,1.87334 -3.9361,2.86914 -7.43831,3.59255 -3.35943,0.69389 -8.327473,0.73825 -9.224756,0.0822 -0.601651,-0.43994 -0.616091,-0.67476 -0.208256,-3.29643 0.241488,-1.55234 0.561803,-3.02122 0.712101,-3.26441 0.215655,-0.34883 1.021813,-0.36056 3.823021,-0.0558 1.95225,0.21247 3.75659,0.32158 4.00958,0.24288 0.25299,-0.0788 0.88501,-0.23588 1.40456,-0.34933 0.51954,-0.11342 1.19376,-0.4553 1.4981,-0.75964 0.5939,-0.59391 0.75981,-2.8006 0.23513,-3.12488 -0.17477,-0.10801 -1.92397,-0.33262 -3.88762,-0.49867 -3.0051,-0.2541 -3.70808,-0.43122 -4.441072,-1.11983 -1.343567,-1.26221 -1.572125,-2.68365 -1.04128,-6.48436 0.908745,-6.50646 3.465042,-9.09047 10.156482,-10.26811 1.69804,-0.29883 3.25949,-0.46004 4.62556,-0.48317 z m 57.79802,2.10323 c -0.53071,0.0235 -1.21804,0.14961 -1.84433,0.36793 -1.27349,0.44395 -1.56131,1.15001 -2.35903,5.78673 -0.48177,2.80004 -0.48453,3.2165 -0.0233,3.55379 0.69713,0.50975 2.50106,0.21662 3.11299,-0.50591 0.38203,-0.45107 2.01848,-7.71257 2.01848,-8.95656 0,-0.19057 -0.37415,-0.2695 -0.90486,-0.24598 z m -20.97649,3.41633 c -0.17177,-0.007 -0.39213,0.008 -0.67696,0.0351 -0.6785,0.0639 -1.46563,0.34136 -1.74925,0.6165 -0.72639,0.70466 -2.35055,8.66693 -1.91255,9.37565 0.33411,0.54059 2.59334,0.30106 3.23753,-0.34313 0.7089,-0.70891 1.99008,-6.96488 1.78336,-8.70748 -0.0869,-0.73236 -0.16683,-0.9559 -0.68213,-0.97668 z m -88.681412,8.2212 c 0.404114,0.0122 0.592212,0.11015 0.592212,0.29042 0,0.54378 -0.79869,0.96475 -4.58215,2.41639 -8.308323,3.18774 -13.47047,5.86159 -16.011942,8.29304 -1.666709,1.59454 -1.723738,1.70864 -1.141016,2.29081 0.970211,0.96928 8.616831,0.68016 16.976742,-0.64182 6.645834,-1.05091 18.258532,-3.16779 25.025346,-4.56199 4.458367,-0.91858 8.970099,-1.31684 8.437211,-0.74466 -0.474619,0.50959 -16.192422,5.84144 -23.420793,7.94473 -7.665053,2.23034 -17.709867,4.61666 -22.906612,5.44205 -5.488577,0.87172 -7.911562,1.02848 -11.291301,0.7307 -3.002951,-0.26458 -4.42528,-0.87191 -5.761405,-2.4598 -1.11244,-1.32205 -1.121045,-1.46931 -0.192753,-3.38687 2.410706,-4.97989 13.369389,-10.58297 28.171924,-14.40377 3.280668,-0.84679 5.215486,-1.23595 6.104537,-1.20923 z"
       inkscape:label="01 preto"
       sodipodi:nodetypes="ccccccscsssssssssscccsssssssssssscsssssssssscssssscsscsssssscsssssscsssssssscssscscssscssssssccccsssssccssssscscccsssssssssssscsssscccsssssssssscsscsssccsssssssssssssssssssssssssssssssssssssscccssssscscsscccsssssccssccccsssssssscccssscccssssscsccccscccssssssssscssscccsssccssssccssssssssscccssssssssssccssssssssssccsccsccssccsssssssssssssssscsccsscssssssssscsssssssssscscssssssssssscssscccssssssssssssssccsccssccscsssssssscssssssssssssssssssscssssscscssccsssssccccsssssssscsssssssssscssssssssssssscssssssccsccscsscsccssccscssssssssssscssssssssssssscsssssscsscccscssssscccssssssscccsssssccscsssssscssssssssssscsc" /></g></svg>
